<svg xmlns="http://www.w3.org/2000/svg" xmlns:xlink="http://www.w3.org/1999/xlink" fill="none" viewBox="0 0 651 220"><defs><path id="d" fill="#fff" d="M111 38a21 21 0 0 0-9.8 2.3 18 18 0 0 0-7.6 8A24.6 24.6 0 0 0 91.2 59c-.2 7.5.2 15.3.7 22.4.2 2.1.5 3.4.2 5.7-1 4.6-5 7.8-7.2 11.8-2.5 4.6-3.4 9.8-5.3 14.6-1.7 4.4-4 8.6-5.6 13a36 36 0 0 0-1.4 19.5 34 34 0 0 0 6.6 13.4L78 162c-1.5 2.5-3.3 4.9-4.1 7.7a10 10 0 0 0-.3 4.3c.2 1.4 1 2.7 2.1 3.7a7 7 0 0 0 2.5 1.2c1 .2 1.9.2 2.9.2 3.6 0 7-1.2 10.5-2.1a67.9 67.9 0 0 1 35.8 0c3.6.9 7.2 2 10.9 2l2.9-.1c1-.2 1.8-.6 2.6-1.2a7 7 0 0 0 2.1-3.7c.3-1.5.1-3-.3-4.3-.8-2.9-2.6-5.2-4.1-7.7l-1.7-3a49 49 0 0 0 10.1-17.2c2.3-7 2.7-14.5 1.7-21.7-1-7.3-3.1-14.4-6.2-21-3.8-8.4-7-11.4-9.3-18.7-2.6-8-.5-17.4-2.3-24.6a25.7 25.7 0 0 0-9.1-13.5c-4-2.7-8.7-4.2-13.5-4.2Z"/><path id="A" fill="#fff" d="M70.4 137.3c.8-.3 1.7-.3 2.5-.2.8.1 1.6.5 2.2 1 1.5.9 2.5 2.3 3.5 3.7a89 89 0 0 1 6.4 9.6c1.7 2.8 3.1 5.5 5 8l3.8 5c1.2 1.6 2.2 3.3 2.8 5.3a10.6 10.6 0 0 1-4.6 11.9 9.7 9.7 0 0 1-5 1.4c-3 0-5.9-1.6-8.6-2.7-5.7-2.3-11.8-3-17.6-4.7l-5.4-1.7c-.8-.2-1.6-.4-2.4-.8a4 4 0 0 1-1.8-1.5c-.4-.6-.5-1.2-.5-1.9 0-.6.2-1.3.4-1.8.4-1.3 1.2-2.3 1.6-3.5.7-2 1-4.2.9-6.3l-.6-6.3V149a4 4 0 0 1 1.3-2.4c.6-.6 1.4-1 2.3-1.2l2.5-.1h2.6a5.2 5.2 0 0 0 4.3-2.4l1.2-2.1c.4-.7.8-1.4 1.4-2a5 5 0 0 1 1.9-1.6Z"/><path id="M" fill="#fff" d="M171.2 164.3a15 15 0 0 1-4.8 3.4c-3 1.5-6.1 2.8-9 4.7a36.8 36.8 0 0 0-5.3 4.3c-1.4 1.3-2.7 2.8-4.3 4a13 13 0 0 1-7 2.3c-1.8 0-3.6-.5-5.3-1.1-1.6-.6-3-1.7-3.9-3a9.7 9.7 0 0 1-1-5c0-3 .5-5.9 1-8.8l1.2-7.3c.4-4.4.4-9 0-13.4V142a3 3 0 0 1 1-2c.6-.4 1.3-.6 2-.7l2 .2c1.6.3 3.3.5 4.8.9l3 .9c1.7.4 3.4.6 5 .4 2-.2 3.7-.9 5.5-.8.8 0 1.6.1 2.3.4a4.3 4.3 0 0 1 3 2.6l.5 2.5a7.7 7.7 0 0 0 2 5.7c1.7 1.8 3.6 3.5 5.7 5l1.5 1.1c.4.3.9.7 1.1 1.3a3.1 3.1 0 0 1 .3 2.4c-.3.8-.7 1.6-1.3 2.3Z"/><path id="aa" fill="#fff" d="M157.7 139.2a3 3 0 0 0-1-1.3c-.4-.4-.9-.8-1.4-1-1-.4-2.3-.6-3.4-.8l-3.1-.6a8.5 8.5 0 0 0-3.4 0 4 4 0 0 0-2.5 1.3c-.8.7-1.3 1.5-1.7 2.4a10 10 0 0 0-.8 5c0 1.4.4 2.6 1.2 3.6.7.8 1.7 1.3 2.7 1.6 1.7.5 3.5.5 5.3 0a14 14 0 0 0 7-5.3c.5-.9 1-1.7 1.2-2.7a4 4 0 0 0 0-2.2Z"/><path id="aD" fill="#fff" d="m94.2 80.5.2.4c0 .3.3.4.5.6l.6.4c1.1.7 2 1.7 3 2.8 1 1.4 2 3 3.5 4 1 .7 2.2 1.1 3.5 1.3 3 0 5.8-.7 8.2-2.2 2.3-1.4 4.1-3.4 6.6-4.3l1.6-.6c.6-.3 1-.6 1.3-1.1l.3-1.7.3-1.7c.2-.6.1-1.2 0-1.7-.3-.5-.7-.8-1.1-1-.4-.3-1-.4-1.4-.4l-3 .3h-3.8c-1.6 0-3.2.4-4.8.5-1.9 0-3.7-.2-5.5-.3h-2.4c-.8.2-1.6.5-2.3 1L98 78.2a4 4 0 0 1-1 .7l-1.1.2h-.6l-.3.3-.3.2-.5.8Z"/><path id="aJ" fill="#fff" d="M98 74.3c-.9.6-1.7 1.3-2.5 2.2l-1 1.7-.3 1.5v.8l.2.3.3.2h.6c.6.1 1.3.4 1.9.8l1.7 1.3a9 9 0 0 0 4.5 1.3 21.6 21.6 0 0 0 15.2-6l.7-.7.7-.4c.4-.2 1-.2 1.4 0h1.5l.4-.3.2-.7c0-.2 0-.4-.2-.6-.2-.4-.5-.7-1-.8l-1.7-.6c-1.8-.4-3.7-1-5.4-1.9l-2.4-1.3c-.8-.4-1.7-.9-2.6-1.2-2-.6-4.3-.4-6.4.3-2.2.8-4.2 2.2-5.8 4Z"/></defs><g filter="url(#a)"><path fill="url(#b)" d="M0 44.8c0-15.7 0-23.5 3-29.5A28 28 0 0 1 15.4 3C21.3 0 29 0 44.8 0h561.4c15.7 0 23.5 0 29.5 3A28 28 0 0 1 648 15.4c3.1 6 3.1 13.8 3.1 29.5v130.4c0 15.7 0 23.5-3 29.5a28 28 0 0 1-12.3 12.2c-6 3.1-13.8 3.1-29.5 3.1H44.8c-15.7 0-23.5 0-29.5-3A28 28 0 0 1 3 204.6c-3-5.9-3-13.6-3-29.4V44.8Z"/></g><g clip-path="url(#c)"><path fill="#020204" d="M111 38a21 21 0 0 0-9.8 2.3 18 18 0 0 0-7.6 8A24.6 24.6 0 0 0 91.2 59c-.2 7.5.2 15.3.7 22.4.2 2.1.5 3.4.2 5.7-1 4.6-5 7.8-7.2 11.8-2.5 4.6-3.4 9.8-5.3 14.6-1.7 4.4-4 8.6-5.6 13a36 36 0 0 0-1.4 19.5 34 34 0 0 0 6.6 13.4L78 162c-1.5 2.5-3.3 4.9-4.1 7.7a10 10 0 0 0-.3 4.3c.2 1.4 1 2.7 2.1 3.7a7 7 0 0 0 2.5 1.2c1 .2 1.9.2 2.9.2 3.6 0 7-1.2 10.5-2.1a67.9 67.9 0 0 1 35.8 0c3.6.9 7.2 2 10.9 2l2.9-.1c1-.2 1.8-.6 2.6-1.2a7 7 0 0 0 2.1-3.7c.3-1.5.1-3-.3-4.3-.8-2.9-2.6-5.2-4.1-7.7l-1.7-3a49 49 0 0 0 10.1-17.2c2.3-7 2.7-14.5 1.7-21.7-1-7.3-3.1-14.4-6.2-21-3.8-8.4-7-11.4-9.3-18.7-2.6-8-.5-17.4-2.3-24.6a25.7 25.7 0 0 0-9.1-13.5c-4-2.7-8.7-4.2-13.5-4.2Z"/><path fill="#FDFDFB" d="M97.6 80a6 6 0 0 0-1 2.1c-.3.8-.3 1.6-.4 2.5 0 1.6 0 3.2-.4 4.8-.5 1.7-1.4 3.2-2.5 4.6-1.9 2.3-3.3 5-4.4 7.9-.5 1.8-.6 3.7-.5 5.5a53.6 53.6 0 0 0-9.1 24.5c-.7 6.4.2 13 2.7 19 1.8 4.4 4.6 8.3 8.1 11.4A26.5 26.5 0 0 0 120 166c3.7-2.2 7.1-4.9 10-8a29 29 0 0 0 5.2-5.9 33 33 0 0 0 4.3-14.2 47 47 0 0 0-2.7-25.8c-1.3-2.7-3-5.2-5.2-7.4a41 41 0 0 0-3.2-11c-1.1-2.6-2.6-5-3.7-7.5l-1.3-3.2c-.5-1-1.1-2-1.9-2.7a7.8 7.8 0 0 0-3-1.7c-1.1-.4-2.2-.6-3.4-.7-2.3 0-4.6.2-7 .1-1.8 0-3.7-.4-5.5-.3-.9 0-1.8.2-2.7.6a6 6 0 0 0-2.2 1.6Z"/><mask id="f" width="81" height="142" x="71" y="37" maskUnits="userSpaceOnUse" style="mask-type:luminance"><use xlink:href="#d"/></mask><g filter="url(#e)" mask="url(#f)" opacity=".3"><path fill="url(#g)" d="M89.4 103.3c.5.7-.3 3.2 11.2 1.6 0 0-2 .2-4 .7-2.7.8-5.4 2-7.8 3.7-2.1 1.5-3.7 3.5-5.5 5.3l3.8-7.4c.8-1.7-.1-1.6.5-4 .5-2.6 2-5 2-5s-1.2 3.6-.2 5Z"/></g><mask id="i" width="81" height="142" x="71" y="37" maskUnits="userSpaceOnUse" style="mask-type:luminance"><use xlink:href="#d"/></mask><g filter="url(#h)" mask="url(#i)" opacity=".4"><path fill="url(#j)" d="M126.5 102.6c-2.4 1.6-3.7 1.4-6.6 1.7-2.8.4-10.6.3-10.6.3l3.6.3c2.5.6 7.5 1 10.4 2 2.8 1.2 4 1.4 5.6 2.6 2.4 1.5 4.3 4 6.6 5.6 0 0 .1-2.2-.8-4-1-1.6-3.5-4.2-4.3-6.7-.7-2.5-1-7.4-1-7.4s-.6 4-3 5.6Z"/></g><mask id="l" width="81" height="142" x="71" y="37" maskUnits="userSpaceOnUse" style="mask-type:luminance"><use xlink:href="#d"/></mask><g filter="url(#k)" mask="url(#l)" opacity=".2"><path fill="url(#m)" d="m104.4 99-.6 3.2-.6.9-.8.4c-1.1.6-2.2.9-3.5 1l1.5.2.9.1c.3 0 .6.2.8.4.3.2.4.4.6.8.3.5.5 1.2.5 1.8v2.6c.2-1.6.8-3.1 1.9-4.3l.9-.8c1-.7 2.2-1 3.5-.9a6 6 0 0 1-3.5-1c-.5-.5-1-1-1.3-1.5a4 4 0 0 1-.3-2.8Z"/></g><mask id="o" width="81" height="142" x="71" y="37" maskUnits="userSpaceOnUse" style="mask-type:luminance"><use xlink:href="#d"/></mask><g filter="url(#n)" mask="url(#o)" opacity=".1"><path fill="#000" d="M101.4 115.7c-.6 2.2-1 4.6-1.2 7-.4 3.3-.3 6.6-.5 10-.1 2.8-.4 5.6 0 8.4.3 1.3.7 2.6 1.3 3.9l.2-1.4c.2-2.3-.2-4.6-.3-6.8-.2-4 .3-8 .6-12 .1-3 0-6-.1-9.1Z"/></g><mask id="q" width="81" height="142" x="71" y="37" maskUnits="userSpaceOnUse" style="mask-type:luminance"><use xlink:href="#d"/></mask><g filter="url(#p)" mask="url(#q)" opacity=".8"><path fill="#7C7C7C" d="M141 112.3c.6 0 4.2 3 3.7 4-.5 1.2-1.4.5-2 .5-.7 0-2.5.9-2.8.4-.3-.6.8-1.7 1.4-2.7.4-.8-.8-2-.2-2.2h-.1Z"/></g><mask id="s" width="81" height="142" x="71" y="37" maskUnits="userSpaceOnUse" style="mask-type:luminance"><use xlink:href="#d"/></mask><g filter="url(#r)" mask="url(#s)"><path fill="#7C7C7C" d="M119.3 44.3c-1.3.9-.7 2-.2 3.1.6 1.1-1.1 4.3-1.2 4.4 0 .1 3.4-1.6 4.3-2.8 1.1-1.3 3.8 2 3.7 1.4 0-.8-5.4-7-6.6-6.1Z"/></g><mask id="u" width="81" height="142" x="71" y="37" maskUnits="userSpaceOnUse" style="mask-type:luminance"><use xlink:href="#d"/></mask><g filter="url(#t)" mask="url(#u)"><path fill="#838384" d="M128.7 81.4c-1 1 .5 2.4 1.2 4.1.5 1 1.7 2.6 3 2.3 1-.2 1.5-1.5 1.4-2.4-.2-1.8-1.7-2.3-2.8-2.9-.9-.4-2-1.8-2.8-1.1Z"/></g><path fill="#020204" d="M86.8 95.2c-3.5 3.9-7 7.7-9 11.9-.9 2.2-1.4 4.5-2 6.8a89.8 89.8 0 0 1-6.3 14c-.8 1.6-1.8 3.3-2 5-.2 1.4-.1 2.9.2 4.3A38.9 38.9 0 0 0 88.1 159c1.4.6 3 1 4.4 1.1.7 0 1.5-.1 2.2-.4a4 4 0 0 0 1.7-1.4c.4-.8.6-1.7.5-2.6a6 6 0 0 0-1-2.6c-1-1.9-3-3.3-4.7-4.7-3.8-3-7.5-6-11-9.4-1-.8-2-1.9-2.7-3a17 17 0 0 1-1.3-3.8c-.7-3.6-.5-7.3.7-10.8l1.7-4c1.1-2.1 2-4.5 3.4-6.5 1.7-2.6 4.1-4.7 5.5-7.4a28 28 0 0 0 2.1-7.5l1.4-6c-.7 1.3-2.9 3.5-4.2 5.2Z"/><mask id="w" width="30" height="72" x="67" y="89" maskUnits="userSpaceOnUse" style="mask-type:luminance"><path fill="#fff" d="M86.8 95.2c-3.5 3.9-7 7.7-9 11.9-.9 2.2-1.4 4.5-2 6.8a89.8 89.8 0 0 1-6.3 14c-.8 1.6-1.8 3.3-2 5-.2 1.4-.1 2.9.2 4.3A38.9 38.9 0 0 0 88.1 159c1.4.6 3 1 4.4 1.1.7 0 1.5-.1 2.2-.4a4 4 0 0 0 1.7-1.4c.4-.8.6-1.7.5-2.6a6 6 0 0 0-1-2.6c-1-1.9-3-3.3-4.7-4.7-3.8-3-7.5-6-11-9.4-1-.8-2-1.9-2.7-3a17 17 0 0 1-1.3-3.8c-.7-3.6-.5-7.3.7-10.8l1.7-4c1.1-2.1 2-4.5 3.4-6.5 1.7-2.6 4.1-4.7 5.5-7.4a28 28 0 0 0 2.1-7.5l1.4-6c-.7 1.3-2.9 3.5-4.2 5.2Z"/></mask><g filter="url(#v)" mask="url(#w)" opacity=".9"><path fill="#7C7C7C" d="M82.8 109.4c-1.1 1-2.1 2.3-3 3.6-1.2 2.1-2 4.6-2.9 7-.7 1.7-1.5 3.5-1.6 5.4l.1 2.8c0 1 0 2-.5 2.9a3 3 0 0 1-1.8 1.5c1 .4 2 1 2.6 2l1.3 2.3a8 8 0 0 0 1.5 1.7 3.7 3.7 0 0 0 4.8 0 65.4 65.4 0 0 1 2.9-28c0-.5-.1-1.1-.4-1.5a1.7 1.7 0 0 0-1.6-.7 1.7 1.7 0 0 0-1.4 1Z"/></g><path fill="#020204" d="M142.6 110c3 2.5 4.9 6 5.4 9.8.5 2.9.1 6-.6 8.8-.6 3-1.6 5.7-2.6 8.5-.4 1.2-.8 2.3-1 3.4-.1 1.2 0 2.5.5 3.5.7 1.2 1.9 2 3.2 2.4a9 9 0 0 0 4 0c1.3-.3 3.5-.7 4.5-1.5 2.7-2.1 3.4-5.7 4-9 .6-3.3.3-6.7-.3-10.1-.8-4.5-2.1-9-3.8-13.4a46.2 46.2 0 0 0-4.8-9c-1.8-2.8-4.5-5-6.5-7.7l-2.2-2.8-2-3c-.6-1-1.7-1.3-2.8-1.7a5 5 0 0 0-5.3.9c-.6.5-1 1.1-1.4 1.8-.6 1.4-.7 3-.5 4.5.4 2 1.2 3.8 2.3 5.5 1.1 1.9 2.4 3.8 4.1 5.2 1.8 1.5 4 2.4 5.8 4v-.1Z"/><mask id="y" width="31" height="60" x="130" y="87" maskUnits="userSpaceOnUse" style="mask-type:luminance"><path fill="#fff" d="M142.6 110c3 2.5 4.9 6 5.4 9.8.5 2.9.1 6-.6 8.8-.6 3-1.6 5.7-2.6 8.5-.4 1.2-.8 2.3-1 3.4-.1 1.2 0 2.5.5 3.5.7 1.2 1.9 2 3.2 2.4a9 9 0 0 0 4 0c1.3-.3 3.5-.7 4.5-1.5 2.7-2.1 3.4-5.7 4-9 .6-3.3.3-6.7-.3-10.1-.8-4.5-2.1-9-3.8-13.4a46.2 46.2 0 0 0-4.8-9c-1.8-2.8-4.5-5-6.5-7.7l-2.2-2.8-2-3c-.6-1-1.7-1.3-2.8-1.7a5 5 0 0 0-5.3.9c-.6.5-1 1.1-1.4 1.8-.6 1.4-.7 3-.5 4.5.4 2 1.2 3.8 2.3 5.5 1.1 1.9 2.4 3.8 4.1 5.2 1.8 1.5 4 2.4 5.8 4v-.1Z"/></mask><g filter="url(#x)" mask="url(#y)"><path fill="#838384" d="m135.6 105.4.7.7c1.9 1.5 2.8 3.2 4.6 4.6a18 18 0 0 1 6.7 10.3c.5 3-.1 4.5-.8 8-.8 3.4-3 8.3-4 11.7-.5 1.3.9.8.7 2.2v2-.4c.3-1.9.8-3.7 1.5-5.5 1.1-3.5 2.6-7 3.5-10.5 1-3.5 1-6.1.4-9.2-.7-3.8-2.9-7.3-6-9.7-2.3-1.7-5-2.7-7.3-4.2Z"/></g><path fill="url(#z)" d="M70.4 137.3c.8-.3 1.7-.3 2.5-.2.8.1 1.6.5 2.2 1 1.5.9 2.5 2.3 3.5 3.7a89 89 0 0 1 6.4 9.6c1.7 2.8 3.1 5.5 5 8l3.8 5c1.2 1.6 2.2 3.3 2.8 5.3a10.6 10.6 0 0 1-4.6 11.9 9.7 9.7 0 0 1-5 1.4c-3 0-5.9-1.6-8.6-2.7-5.7-2.3-11.8-3-17.6-4.7l-5.4-1.7c-.8-.2-1.6-.4-2.4-.8a4 4 0 0 1-1.8-1.5c-.4-.6-.5-1.2-.5-1.9 0-.6.2-1.3.4-1.8.4-1.3 1.2-2.3 1.6-3.5.7-2 1-4.2.9-6.3l-.6-6.3V149a4 4 0 0 1 1.3-2.4c.6-.6 1.4-1 2.3-1.2l2.5-.1h2.6a5.2 5.2 0 0 0 4.3-2.4l1.2-2.1c.4-.7.8-1.4 1.4-2a5 5 0 0 1 1.9-1.6Z"/><mask id="C" width="48" height="47" x="50" y="137" maskUnits="userSpaceOnUse" style="mask-type:luminance"><use xlink:href="#A"/></mask><g filter="url(#B)" mask="url(#C)"><path fill="#D99A03" d="M71.6 138.7c.7-.3 1.5-.4 2.3-.2a5 5 0 0 1 2 1c1.2 1 2 2.3 2.9 3.6 1.9 3 3.8 6.3 5.6 9.5 1.3 2.4 2.6 5 4.2 7.2l3.5 4.3c1.2 1.5 2.2 3 2.6 4.9a9.3 9.3 0 0 1-4.2 10.5 9 9 0 0 1-4.8 1.2c-2.8 0-5.3-1.4-7.8-2.3-5-1.9-10.3-2-15.3-3.4l-5.4-1.7-2.4-.7c-.8-.3-1.5-.8-2-1.6a4.7 4.7 0 0 1 .1-3.5c.4-1.2 1.1-2.2 1.6-3.4.6-1.7.7-3.6.5-5.5 0-1.9-.4-3.7-.5-5.6l.1-2.5c.2-.8.6-1.6 1.2-2.2.6-.6 1.5-1 2.3-1.2H61c.9.2 1.8.3 2.7.2a5 5 0 0 0 2.6-.8 6 6 0 0 0 1.5-1.8l1-2.3 1-2.2a5 5 0 0 1 2-1.5Z"/></g><mask id="E" width="48" height="47" x="50" y="137" maskUnits="userSpaceOnUse" style="mask-type:luminance"><use xlink:href="#A"/></mask><g filter="url(#D)" mask="url(#E)"><path fill="#F5BD0C" d="M71 136.9c.7-.4 1.5-.5 2.2-.3.8.2 1.4.6 2 1 1.2 1 2 2.4 2.7 3.7 1.6 3.1 3.1 6.2 5 9.2 1.4 2 3 4 4.4 6.2 2 2.9 3.5 6 4.2 9.3.4 2.3.4 4.7-.7 6.8a7.5 7.5 0 0 1-3.3 3c-1.4.8-3 1-4.4 1-2.4-.3-4.6-1.5-6.9-2.4-4-1.4-8.4-1.8-12.5-2.8-1.8-.5-3.5-1.2-5.3-1.5a7 7 0 0 1-2.2-.6 3 3 0 0 1-1.9-1.4c-.3-.5-.4-1-.3-1.6 0-.5.2-1.1.4-1.6l1.4-3a9 9 0 0 0 0-4.8c-.5-1.6-1-3.2-1.2-4.8 0-.7 0-1.5.2-2.2a3 3 0 0 1 1-1.9 4 4 0 0 1 2.5-1c1-.1 2 0 2.8.1 1 .2 2 .3 2.9.2 1 0 1.9-.2 2.7-.8.7-.6 1.2-1.4 1.4-2.3.3-1 .4-1.8.5-2.7 0-1 .2-2 .6-2.8a4 4 0 0 1 1.8-2Z"/></g><mask id="G" width="48" height="47" x="50" y="137" maskUnits="userSpaceOnUse" style="mask-type:luminance"><use xlink:href="#A"/></mask><g filter="url(#F)" mask="url(#G)"><path fill="url(#H)" d="M79.6 144.6c1.3 2.3 2 5 3.2 7.2l3.7 6.4c.6.8 1.8 2.2 3 4.3 1.1 1.9 2.3 4.5 2.8 5.4-.3-1-1-3.8-2-5.8-.8-1.9-1.8-3-2.3-4-1.2-1.9-2.5-3.6-3.7-5.6-1.7-2.5-3-5.4-4.7-7.9Z"/></g><mask id="J" width="81" height="142" x="71" y="37" maskUnits="userSpaceOnUse" style="mask-type:luminance"><use xlink:href="#d"/></mask><g filter="url(#I)" mask="url(#J)" opacity=".2"><path fill="url(#K)" d="m162.9 160.1-1 2.2a15.4 15.4 0 0 1-4 3.6c-2.4 1.7-5 3.3-7.2 5.3a39 39 0 0 0-4.2 4.4l-3.4 4a10.6 10.6 0 0 1-10.3 2.8c-1.3-.4-2.6-1-3.4-2a6.5 6.5 0 0 1-1.2-4c-.2-2.5.1-5 .4-7.6l.5-6.4c.2-3.8 0-7.6-.6-11.3 0-.6-.2-1.2-.1-2 0-.5.2-1.2.7-1.7a3 3 0 0 1 1.6-.9l1.7-.1c1.4 0 2.8-.2 4 0l2.6.3c1.4.1 3 0 4.3-.3 1.6-.5 3-1.3 4.6-1.6h2c.5 0 1.2.3 1.6.6l1 1.2.5 2c0 .7.1 1.4.3 2 .3 1 .9 2 1.7 2.6 1.5 1.3 3.2 2.5 5 3.4l1.4.6c.4.3.8.6 1 1 .4.6.6 1.2.5 2Z"/></g><path fill="url(#L)" d="M171.2 164.3a15 15 0 0 1-4.8 3.4c-3 1.5-6.1 2.8-9 4.7a36.8 36.8 0 0 0-5.3 4.3c-1.4 1.3-2.7 2.8-4.3 4a13 13 0 0 1-7 2.3c-1.8 0-3.6-.5-5.3-1.1-1.6-.6-3-1.7-3.9-3a9.7 9.7 0 0 1-1-5c0-3 .5-5.9 1-8.8l1.2-7.3c.4-4.4.4-9 0-13.4V142a3 3 0 0 1 1-2c.6-.4 1.3-.6 2-.7l2 .2c1.6.3 3.3.5 4.8.9l3 .9c1.7.4 3.4.6 5 .4 2-.2 3.7-.9 5.5-.8.8 0 1.6.1 2.3.4a4.3 4.3 0 0 1 3 2.6l.5 2.5a7.7 7.7 0 0 0 2 5.7c1.7 1.8 3.6 3.5 5.7 5l1.5 1.1c.4.3.9.7 1.1 1.3a3.1 3.1 0 0 1 .3 2.4c-.3.8-.7 1.6-1.3 2.3Z"/><mask id="O" width="43" height="44" x="130" y="139" maskUnits="userSpaceOnUse" style="mask-type:luminance"><use xlink:href="#M"/></mask><g filter="url(#N)" mask="url(#O)"><path fill="#CD8907" d="M171 160.4c-.2.8-.7 1.5-1.2 2.1a13.4 13.4 0 0 1-4.4 3c-2.8 1.5-5.6 2.7-8.2 4.4a34.6 34.6 0 0 0-4.8 3.8c-1.3 1.2-2.5 2.4-4 3.5-1.4 1-3 1.7-4.8 2-2.2.3-4.4 0-6.4-.9a7.5 7.5 0 0 1-3.5-2.8c-.8-1.2-1-2.8-1-4.3 0-2.7.5-5.3 1-8a69.5 69.5 0 0 0 1-18.7v-1.9a3 3 0 0 1 1-1.8c.5-.4 1.1-.6 1.7-.6.7 0 1.3 0 2 .2 1.4.2 2.9.3 4.3.7l2.7.8c1.6.4 3.1.6 4.7.4 1.7-.2 3.3-.8 5-.8.7 0 1.3.2 2 .4s1.4.5 1.8 1c.4.4.7.8.9 1.4.3.7.5 1.5.5 2.2v2.5c0 .7.3 1.3.7 1.9.4.6.7 1.1 1.2 1.6.8 1 1.7 2 2.7 2.7 1.2.9 2.7 1.4 3.9 2.2l1 1c.4.5.5 1.3.3 2Z"/></g><mask id="Q" width="43" height="44" x="130" y="139" maskUnits="userSpaceOnUse" style="mask-type:luminance"><use xlink:href="#M"/></mask><g filter="url(#P)" mask="url(#Q)"><path fill="#F5C021" d="M171 159.6a10.7 10.7 0 0 1-5.9 5.2c-2.8 1-6 1.2-8.6 2.4-1.7.7-3.2 1.8-4.8 2.9a22 22 0 0 1-3.8 2.3c-2.5 1-5.2 1.5-8 1.5a5.8 5.8 0 0 1-4.7-2.6c-.4-.9-.6-1.8-.5-2.8 0-2.5.5-5.1.5-7.6 0-2.3-.4-4.5-.5-6.7-.2-4.2.7-8.6-.1-12.8-.1-.7-.3-1.3-.3-2 0-.4 0-.7.2-1 0-.3.2-.6.5-.8.2-.2.5-.3.8-.3h.7c.6 0 1 .3 1.6.4 1.4.4 3 .4 4.5.8l2.8.8c1.5.4 3.2.6 4.8.4 1.6-.2 3.3-.8 5-.8a9 9 0 0 1 2.2.4 4 4 0 0 1 1.8 1c.4.4.7.9.9 1.4.3.7.5 1.5.6 2.3l-.2 1.2v1.3l.6 1.1.8 1c.7.9 1.2 2 1.7 3 .6 1 1.1 2 2 2.7 1.2 1 2.7 1.5 4 2.2l1 .9a2.3 2.3 0 0 1 .3 2.2Z"/></g><mask id="S" width="43" height="44" x="130" y="139" maskUnits="userSpaceOnUse" style="mask-type:luminance"><use xlink:href="#M"/></mask><g filter="url(#R)" mask="url(#S)"><path fill="url(#T)" d="M134.2 140.9c1.7-.5 3 .8 4.2 1.7.7.6 1.8.4 2.7.5 1.5 0 3 .2 4.5 0 3-.3 6-1 9-1.1 1.4 0 3-.2 4.3.7.5.3 1.3 1.8 1.7 1.2a4.2 4.2 0 0 0-2.8-3.4c-1.3-.2-2.5.1-3.7 0-3.6 0-7.2-.8-10.8-.5-2.6 0-5.1-.2-7.6-.3-1-.1-1.3.7-1.9 1 .2.2.3.2.5.2Z"/></g><mask id="V" width="43" height="44" x="130" y="139" maskUnits="userSpaceOnUse" style="mask-type:luminance"><use xlink:href="#M"/></mask><g filter="url(#U)" mask="url(#V)" opacity=".3"><path fill="url(#W)" d="M155.4 144.3c-.3-.6-.8-1-1.3-1.2l-1.7-.3c-1.3 0-2.5.3-3.7.2-1-.1-2-.4-3-.7-1-.3-2-.4-3 0-1.2.2-2 1-2.7 1.9a7 7 0 0 0-.9 2.8c0 1 0 2 .2 3 0 .7 0 1.5.2 2.1a5.3 5.3 0 0 0 3.4 3.8c1.5.5 3.4.5 5 0a13.6 13.6 0 0 0 7.8-10.4 3 3 0 0 0-.3-1.2Z"/></g><mask id="Y" width="43" height="44" x="130" y="139" maskUnits="userSpaceOnUse" style="mask-type:luminance"><use xlink:href="#M"/></mask><g filter="url(#X)" mask="url(#Y)" opacity=".3"><path fill="url(#Z)" d="M155.4 142.7c-.3-.4-.8-.7-1.3-.8-.6-.2-1.2-.2-1.7-.2-1.3 0-2.5.2-3.7.1-1 0-2-.3-3-.5s-2-.2-3 0c-1.2.2-2 .7-2.7 1.4-.6.5-.8 1.3-.9 2 0 .7 0 1.5.2 2.2 0 .5 0 1 .2 1.5.2.6.5 1 1 1.4a5 5 0 0 0 2.4 1.3c1.5.5 3.4.4 5 0 2.6-.9 5-2.5 6.4-4.4a8 8 0 0 0 1.4-3c0-.4-.1-.7-.3-1Z"/></g><path fill="#020204" d="M157.7 139.2a3 3 0 0 0-1-1.3c-.4-.4-.9-.8-1.4-1-1-.4-2.3-.6-3.4-.8l-3.1-.6a8.5 8.5 0 0 0-3.4 0 4 4 0 0 0-2.5 1.3c-.8.7-1.3 1.5-1.7 2.4a10 10 0 0 0-.8 5c0 1.4.4 2.6 1.2 3.6.7.8 1.7 1.3 2.7 1.6 1.7.5 3.5.5 5.3 0a14 14 0 0 0 7-5.3c.5-.9 1-1.7 1.2-2.7a4 4 0 0 0 0-2.2Z"/><mask id="ac" width="18" height="15" x="140" y="135" maskUnits="userSpaceOnUse" style="mask-type:luminance"><use xlink:href="#aa"/></mask><g filter="url(#ab)" mask="url(#ac)"><path fill="url(#ad)" d="M146 134.9h-.8a6.5 6.5 0 0 0-4 2.9 6.5 6.5 0 0 0-.9 3.5c0-.8.3-1.7.7-2.4a5 5 0 0 1 3.4-2.5h2.6l2.5.5c1.6.3 3.1 1 4.4 2l.4.9c0 .4 0 .9-.3 1.2l-.9 1.2-.7.6c1.2-.2 2.5-.5 3.5-1.3.5-.2.9-.6 1.1-1 .3-.5.4-1.1.3-1.7l-.6-.9-.8-.7a8.8 8.8 0 0 0-4.4-1.7c-1.8-.3-3.6-.5-5.5-.6Z"/></g><mask id="af" width="18" height="15" x="140" y="135" maskUnits="userSpaceOnUse" style="mask-type:luminance"><use xlink:href="#aa"/></mask><g filter="url(#ae)" mask="url(#af)"><path fill="url(#ag)" d="M146 134.9h-.8a6.5 6.5 0 0 0-4 2.9 6.5 6.5 0 0 0-.9 3.5c0-.8.3-1.7.7-2.4a5 5 0 0 1 3.4-2.5h2.6l2.5.5c1.6.3 3.1 1 4.4 2l.4.9c0 .4 0 .9-.3 1.2l-.9 1.2-.7.6c1.2-.2 2.5-.5 3.5-1.3.5-.2.9-.6 1.1-1 .3-.5.4-1.1.3-1.7l-.6-.9-.8-.7a8.8 8.8 0 0 0-4.4-1.7c-1.8-.3-3.6-.5-5.5-.6Z"/></g><path fill="url(#ah)" d="M98.4 59.7c-1 0-1.7.4-2.4 1-.6.6-1.1 1.4-1.4 2.2a13 13 0 0 0-.2 5.2c0 1.6.2 3.2.7 4.6.4.8.8 1.4 1.3 2 .6.6 1.3 1 2 1.2.8.2 1.5.2 2.2 0 .7-.3 1.4-.7 1.9-1.2a6 6 0 0 0 1.6-2.8c.5-2.4.5-4.9-.3-7.2a9 9 0 0 0-2-3.4c-.5-.5-1-.9-1.6-1.2a3 3 0 0 0-1.9-.4Z"/><path fill="#020204" d="M96.3 66.9c-.3 1.1-.3 2.3.1 3.3.3.7.7 1.3 1.2 1.8.3.4.7.7 1.1.9.5.2 1 .3 1.4.2.5-.1.8-.4 1.1-.7l.6-1.2c.3-1.3.3-2.6-.1-4a5 5 0 0 0-1.5-2.3c-.3-.3-.7-.6-1.1-.6h-1.4c-.4.3-.8.7-1 1.1-.3.5-.4 1-.5 1.5Z"/><mask id="aj" width="7" height="10" x="96" y="64" maskUnits="userSpaceOnUse" style="mask-type:luminance"><path fill="#fff" d="M96.3 66.9c-.3 1.1-.3 2.3.1 3.3.3.7.7 1.3 1.2 1.8.3.4.7.7 1.1.9.5.2 1 .3 1.4.2.5-.1.8-.4 1.1-.7l.6-1.2c.3-1.3.3-2.6-.1-4a5 5 0 0 0-1.5-2.3c-.3-.3-.7-.6-1.1-.6h-1.4c-.4.3-.8.7-1 1.1-.3.5-.4 1-.5 1.5Z"/></mask><g filter="url(#ai)" mask="url(#aj)"><path fill="url(#ak)" d="M98.5 66c.2.4.6.5.8.8l.5.8c.3.5-.2 1.4.3 1.8h.5c.6-.5.5-1.6.2-2.3-.2-.7-.6-1.2-1.3-1.6-.2 0-.6-.3-.9 0v.6Z"/></g><mask id="al" width="11" height="18" x="94" y="59" maskUnits="userSpaceOnUse" style="mask-type:luminance"><path fill="#fff" d="M98.4 59.7c-1 0-1.7.4-2.4 1-.6.6-1.1 1.4-1.4 2.2a13 13 0 0 0-.2 5.2c0 1.6.2 3.2.7 4.6.4.8.8 1.4 1.3 2 .6.6 1.3 1 2 1.2.8.2 1.5.2 2.2 0 .7-.3 1.4-.7 1.9-1.2a6 6 0 0 0 1.6-2.8c.5-2.4.5-4.9-.3-7.2a9 9 0 0 0-2-3.4c-.5-.5-1-.9-1.6-1.2a3 3 0 0 0-1.9-.4Z"/></mask><g mask="url(#al)"><path fill="url(#am)" d="M96.4 63.2c1.4-.7 3-1 4.5-.8 1.5.1 3 .5 4.4 1 1.1.3 2.2.5 3.2 1 1 .4 2 1.1 2.5 2.1l.3.5c0 .2.2.3.3.4l.5.2h.3l.1-.3v-.6c-.3-1.3-1.2-2.5-1.8-3.7l-1.2-2.3a13.9 13.9 0 0 0-6.2-5.7c-2.5-1.3-5.4-2-8.2-2.1a47.3 47.3 0 0 0-14 2c-.7.4-1.2.8-1.7 1.4-.4.6-.8 1.2-.9 2 0 .7 0 1.3.3 2s.6 1.3 1 1.8c1 1.1 2 1.9 3 2.8 1.1 1 2 2 3.2 2.8a7 7 0 0 0 2 .8c.6.3 1.3.3 2 .1.7-.1 1.3-.5 1.9-.9l1.5-1.5c1-1.1 1.9-2.3 3-3Z"/></g><g filter="url(#an)"><path fill="url(#ao)" d="M102 58.7a12 12 0 0 1 2.6 4c-.3-1.6-.6-2.9-1.7-4a8.8 8.8 0 0 0-2.3-1.5c-.7-.3-1.6-.6-2-.6h-.7.1l1.7.6c.8.3 1.5 1 2.2 1.5Z"/></g><path fill="url(#ap)" d="M113.7 59.7a8 8 0 0 0-3 3.8c-.8 2-.5 4.1.2 6 .7 2 1.8 4 3.6 5.1.9.7 1.9 1.1 2.9 1.2a5.4 5.4 0 0 0 5.6-3.4c1.1-2.7 1.2-5.8.3-8.6a8.5 8.5 0 0 0-3.1-4.2 7 7 0 0 0-2.5-1 5.3 5.3 0 0 0-4 1Z"/><path fill="#020204" d="M116.8 63.8c-.5 0-1 .2-1.4.5a4 4 0 0 0-1.2 1 6 6 0 0 0-.8 2.9c0 .8 0 1.6.3 2.3a5 5 0 0 0 1.3 1.9 3.6 3.6 0 0 0 5.6-1.2 5.5 5.5 0 0 0 0-5c-.5-1-1.4-1.8-2.4-2.2-.5-.2-1-.3-1.4-.2Z"/><mask id="ar" width="9" height="11" x="113" y="63" maskUnits="userSpaceOnUse" style="mask-type:luminance"><path fill="#fff" d="M116.8 63.8c-.5 0-1 .2-1.4.5a4 4 0 0 0-1.2 1 6 6 0 0 0-.8 2.9c0 .8 0 1.6.3 2.3a5 5 0 0 0 1.3 1.9 3.6 3.6 0 0 0 5.6-1.2 5.5 5.5 0 0 0 0-5c-.5-1-1.4-1.8-2.4-2.2-.5-.2-1-.3-1.4-.2Z"/></mask><g filter="url(#aq)" mask="url(#ar)"><path fill="url(#as)" d="M120 68.2c.5-.5-.5-2-1.2-2.7-.6-.4-2.1-.9-2-.4 0 .5.7 1.2 1.2 1.6.5.6 1.7 1.8 2 1.5Z"/></g><mask id="at" width="14" height="18" x="110" y="58" maskUnits="userSpaceOnUse" style="mask-type:luminance"><path fill="#fff" d="M113.7 59.7a8 8 0 0 0-3 3.8c-.8 2-.5 4.1.2 6 .7 2 1.8 4 3.6 5.1.9.7 1.9 1.1 2.9 1.2a5.4 5.4 0 0 0 5.6-3.4c1.1-2.7 1.2-5.8.3-8.6a8.5 8.5 0 0 0-3.1-4.2 7 7 0 0 0-2.5-1 5.3 5.3 0 0 0-4 1Z"/></mask><g mask="url(#at)"><path fill="url(#au)" d="M108.6 64.6c1.1-1 2.5-1.7 4-2.1 2.9-1 6.3-.6 8.9 1.1.9.6 1.7 1.2 2.5 2 .8.6 1.7 1.2 2.8 1.6.5.2 1.1.3 1.7.3a3.3 3.3 0 0 0 2.4-1.7c.6-1 .8-2 .7-3.1-.2-2.1-1.4-4-2.3-5.8l-1-1.7a9.6 9.6 0 0 0-4.9-3.4c-1.9-.6-4-.8-5.9-1.1-.9 0-1.8-.2-2.6-.1-1 .1-2 .5-3 .8l-1.5.3a5 5 0 0 0-1.3.6 3 3 0 0 0-1 1.9c-.2.7-.2 1.4 0 2 .1 1.5.7 3 .7 4.3 0 1-.4 2-.4 3l.2 1.1Z"/></g><g filter="url(#av)"><path fill="url(#aw)" d="M118.4 55.7c-.3.2-.5.6-.6 1 1 .2 2 .6 3 1.2a12 12 0 0 1 3.9 4.7l.5-.8a12 12 0 0 0-4-4.9c-.9-.6-1.8-1-2.8-1.2Z"/></g><mask id="ay" width="81" height="142" x="71" y="37" maskUnits="userSpaceOnUse" style="mask-type:luminance"><use xlink:href="#d"/></mask><g filter="url(#ax)" mask="url(#ay)"><path fill="#000" fill-opacity=".3" d="M96.4 88.6c1.2 3.2 3.6 5.9 6.6 7.5a4.7 4.7 0 0 0 4.8-.4l2.1-1.3c1.2-.8 2.5-1.4 3.8-2 1.5-.9 3-1.9 4.2-3l1.7-1.6c.6-.5 1.4-.7 2.3-.7.5 0 1 .3 1.7.4.2 0 .5.1.8 0 .3 0 .6-.1.8-.3.2-.3.3-.6.3-1 0-.3 0-.7-.3-1-.3-.7-.8-1.2-1-1.9-.3-.6-.2-1.3-.2-2 0-.5 0-1.2-.3-1.8-.2-.4-.6-.8-1-1l-1.4-.4c-1-.1-2 .1-3 .2h-3.8c-1.6 0-3.2.5-4.8.5-1.9 0-3.7-.6-5.5-.3-.8.1-1.5.4-2.3.7-.8.2-1.5.4-2.3.4-.9 0-1.8-.3-2.7-.4-.4 0-.9 0-1.3.2s-.8.5-1 .9l-.2.7v.7l.6 1.5c.7 1.7.9 3.6 1.4 5.4Z"/></g><mask id="aA" width="81" height="142" x="71" y="37" maskUnits="userSpaceOnUse" style="mask-type:luminance"><use xlink:href="#d"/></mask><g filter="url(#az)" mask="url(#aA)" opacity=".3"><path fill="#000" d="M94.1 81.7c1.7 1 3 2.3 4.3 3.7 1.1 1.3 2.1 2.7 3.6 3.7 1 .7 2.2 1 3.5 1.1 2.9.1 5.7-.6 8.2-2 2.3-1.3 4.1-3 6.6-4l1.6-.5c.5-.2 1-.5 1.3-1l.3-1.5c0-.6.2-1 .3-1.6.1-.6.1-1.2 0-1.6-.3-.4-.6-.7-1.1-1l-1.4-.3-3 .3h-3.8c-1.6 0-3.2.4-4.8.4-1.9.1-3.7-.1-5.5-.2l-2.4.1c-.8.1-1.6.3-2.3.8-.5.3-1 1-1.6 1.4l-1 .5a2 2 0 0 1-1.1.4h-.6c-.3 0-.7.2-.8.5a1.1 1.1 0 0 0-.3.8Z"/></g><path fill="url(#aB)" d="M102.4 71.1c.9-1 1.4-2.1 2.3-3 .4-.6.9-1 1.5-1.4a3 3 0 0 1 1.8-.4c.7 0 1.4.4 1.9.9A5 5 0 0 1 111 69l1 1.8c.4.6 1.1 1 1.7 1.4l.8.8.5 1-.1 1.1a3 3 0 0 1-.6 1 4 4 0 0 1-2 .8c-1.6.2-3-.2-4.6-.2-1.4 0-3 .6-4.5.6a3.5 3.5 0 0 1-2.8-1.5 2.2 2.2 0 0 1-.1-2.2c0-.3.3-.6.5-.9l1.5-1.6Z"/><path fill="url(#aC)" d="m94.2 80.5.2.4c0 .3.3.4.5.6l.6.4c1.1.7 2 1.7 3 2.8 1 1.4 2 3 3.5 4 1 .7 2.2 1.1 3.5 1.3 3 0 5.8-.7 8.2-2.2 2.3-1.4 4.1-3.4 6.6-4.3l1.6-.6c.6-.3 1-.6 1.3-1.1l.3-1.7.3-1.7c.2-.6.1-1.2 0-1.7-.3-.5-.7-.8-1.1-1-.4-.3-1-.4-1.4-.4l-3 .3h-3.8c-1.6 0-3.2.4-4.8.5-1.9 0-3.7-.2-5.5-.3h-2.4c-.8.2-1.6.5-2.3 1L98 78.2a4 4 0 0 1-1 .7l-1.1.2h-.6l-.3.3-.3.2-.5.8Z"/><mask id="aF" width="30" height="15" x="94" y="75" maskUnits="userSpaceOnUse" style="mask-type:luminance"><use xlink:href="#aD"/></mask><g filter="url(#aE)" mask="url(#aF)"><path fill="#D9B30D" d="M101.4 82.5a3.3 3.3 0 0 0 2.2 3.8 3.8 3.8 0 0 0 4.2-1.4l.3-.9-.1-.9-.6-.8-.9-.4a9 9 0 0 0-2.2-.3c-1 0-2.7.1-2.9 1Z"/></g><mask id="aH" width="30" height="15" x="94" y="75" maskUnits="userSpaceOnUse" style="mask-type:luminance"><use xlink:href="#aD"/></mask><g filter="url(#aG)" mask="url(#aH)"><path fill="#604405" d="M98.2 76.5c-1 .5-1.8 1.2-2.7 2l-.1.8v.8l-.1.6v.3l.1.3.4.1.3.1a3 3 0 0 1 1.5 1l1.3 1.1c1.2 1 2.8 1.4 4.5 1.5 2.8-.2 5.7-.7 8.3-1.7 1.8-.7 3.5-1.7 4.9-3 .7-.5 1.3-1.2 2-1.6l2-1 .2-.2.2-.2v-.3l-.2-.3-.2-.3a5 5 0 0 0-2.6-.9c-.9 0-1.8 0-2.8-.2-.8 0-1.6-.4-2.4-.7-.8-.2-1.7-.5-2.6-.6-4.1-.7-8.3.1-11.9 2.3Z"/></g><path fill="url(#aI)" d="M98 74.3c-.9.6-1.7 1.3-2.5 2.2l-1 1.7-.3 1.5v.8l.2.3.3.2h.6c.6.1 1.3.4 1.9.8l1.7 1.3a9 9 0 0 0 4.5 1.3 21.6 21.6 0 0 0 15.2-6l.7-.7.7-.4c.4-.2 1-.2 1.4 0h1.5l.4-.3.2-.7c0-.2 0-.4-.2-.6-.2-.4-.5-.7-1-.8l-1.7-.6c-1.8-.4-3.7-1-5.4-1.9l-2.4-1.3c-.8-.4-1.7-.9-2.6-1.2-2-.6-4.3-.4-6.4.3-2.2.8-4.2 2.2-5.8 4Z"/><mask id="aL" width="30" height="16" x="94" y="69" maskUnits="userSpaceOnUse" style="mask-type:luminance"><use xlink:href="#aJ"/></mask><g filter="url(#aK)" mask="url(#aL)"><path fill="#F6DA4A" d="M112.5 74.7a.9.9 0 0 0-.5-.3h-.5c-.4 0-.7.2-1 .4a15 15 0 0 0-2.2 2 8 8 0 0 0-1.8 3.7v.7c0 .2.1.4.3.5 0 .2.3.3.5.3h.6l1-.7c1.6-1.4 3-3.2 3.6-5.3l.2-.7-.2-.5v-.1Z"/></g><g filter="url(#aM)" opacity=".8"><path fill="url(#aN)" d="M103 71.4c-.5-.1-1.1.7-1 1 .1.2.4.3.5.3.2-.1.3-.6.5-.7.2-.1.2-.5 0-.6Z"/></g><g filter="url(#aO)" opacity=".8"><path fill="url(#aP)" d="M108.6 71.6c.1.4.7.4 1 .6.3 0 .6.4.8.4.4 0 .9-.1.9-.4 0-.4-.6-.7-1-.8-.5-.2-1-.3-1.5 0-.2 0-.3.1-.2.2Z"/></g><mask id="aR" width="30" height="21" x="94" y="69" maskUnits="userSpaceOnUse" style="mask-type:luminance"><use xlink:href="#aD"/><use xlink:href="#aJ"/></mask><g filter="url(#aQ)" mask="url(#aR)"><path fill="url(#aS)" d="M123.7 77.2c0 .4-.3.9-.6 1.2-.3.3-.7.5-1 .5a1 1 0 0 1-.5-.1c-.2 0-.4-.2-.5-.4l-.2-.5v-.7a2.3 2.3 0 0 1 .5-1.3c.2-.1.3-.3.5-.3l.6-.2c.3 0 .6.2.9.6.2.3.3.7.2 1.1v.1Z"/></g></g><path fill="#fff" d="M221.4 86.5h-15.8V40h16.1c4.6 0 8.6 1 12 2.8 3.3 1.8 5.8 4.5 7.6 8 1.8 3.4 2.7 7.6 2.7 12.4 0 4.9-.9 9-2.7 12.5a18.7 18.7 0 0 1-7.8 8 24.7 24.7 0 0 1-12 2.8Zm-7.3-7.3h6.9c3.2 0 6-.6 8.1-1.7 2.2-1.2 3.8-3 4.9-5.4 1-2.4 1.6-5.3 1.6-8.9a21 21 0 0 0-1.6-8.9c-1-2.3-2.7-4-4.8-5.3a16 16 0 0 0-8-1.7h-7.1v32Zm52.8 8a15.3 15.3 0 0 1-14.7-8.5c-1.4-2.7-2-5.9-2-9.5 0-3.6.6-6.8 2-9.5s3.3-4.8 5.8-6.3 5.5-2.2 8.9-2.2c3.4 0 6.3.7 8.8 2.2a15 15 0 0 1 5.8 6.3c1.4 2.7 2.1 5.9 2.1 9.5 0 3.6-.7 6.8-2 9.5a15.1 15.1 0 0 1-5.9 6.3 16.9 16.9 0 0 1-8.8 2.2Zm0-6.6a7 7 0 0 0 4.7-1.5c1.2-1 2.1-2.4 2.7-4.1a17 17 0 0 0 1-5.8c0-2.2-.4-4-1-5.8a9.2 9.2 0 0 0-2.7-4.2 7 7 0 0 0-4.7-1.5c-1.9 0-3.5.5-4.7 1.5a9.3 9.3 0 0 0-2.8 4.2 17.4 17.4 0 0 0 0 11.6 9.3 9.3 0 0 0 2.8 4 6.7 6.7 0 0 0 4.7 1.6Zm29.9 5.9-9.9-34.9h8.4l6.1 24.6h.4l6.2-24.6h8.3l6.3 24.4h.3l6-24.4h8.5l-9.9 35H319l-6.5-23.7h-.5l-6.5 23.6h-8.6ZM351.4 66v20.5H343V51.6h8v6h.3c.8-2 2.1-3.6 3.9-4.7 1.7-1.2 4-1.7 6.5-1.7 2.4 0 4.5.5 6.3 1.5 1.8 1 3.2 2.5 4.2 4.5s1.5 4.3 1.5 7.1v22.2h-8.2v-21c0-2.3-.7-4-1.9-5.4a6.4 6.4 0 0 0-5-2 7 7 0 0 0-3.8 1c-1 .6-2 1.5-2.6 2.7-.6 1.2-1 2.6-1 4.3Zm39-26v46.5H382V40h8.3ZM414 87.2a15.3 15.3 0 0 1-14.7-8.5c-1.3-2.7-2-5.9-2-9.5 0-3.6.7-6.8 2-9.5 1.5-2.7 3.4-4.8 5.9-6.3a17 17 0 0 1 8.9-2.2c3.4 0 6.3.7 8.8 2.2 2.5 1.5 4.5 3.6 5.8 6.3 1.4 2.7 2 5.9 2 9.5 0 3.6-.6 6.8-2 9.5A15.1 15.1 0 0 1 423 85a16.9 16.9 0 0 1-8.8 2.2Zm.1-6.6a7 7 0 0 0 4.6-1.5c1.3-1 2.2-2.4 2.8-4.1a17 17 0 0 0 1-5.8c0-2.2-.4-4-1-5.8a9.2 9.2 0 0 0-2.8-4.2 7 7 0 0 0-4.6-1.5c-1.9 0-3.5.5-4.7 1.5a9.3 9.3 0 0 0-2.8 4.2 17.4 17.4 0 0 0 0 11.6 9.3 9.3 0 0 0 2.8 4 6.7 6.7 0 0 0 4.7 1.6Zm33.7 6.6c-2.2 0-4.2-.4-6-1.2a10 10 0 0 1-4.1-3.5c-1-1.6-1.6-3.5-1.6-5.8 0-2 .4-3.6 1.1-4.9a8.4 8.4 0 0 1 3-3 15 15 0 0 1 4.3-1.8c1.5-.4 3.2-.7 4.9-.9l5-.6c1.2-.1 2.2-.4 2.7-.8.6-.4 1-1 1-1.7v-.2c0-1.7-.6-3-1.6-4-1-.9-2.5-1.3-4.4-1.3-2 0-3.6.4-4.8 1.3-1.2.9-2 1.9-2.3 3l-7.7-1a12.3 12.3 0 0 1 8-8.5 21.8 21.8 0 0 1 11.7-.5 10.8 10.8 0 0 1 8 5.6 12 12 0 0 1 1.2 5.8v23.3h-7.9v-4.8h-.2a10 10 0 0 1-5.5 4.8c-1.4.5-3 .7-4.8.7Zm2.2-6a9 9 0 0 0 4.2-1 7.2 7.2 0 0 0 2.8-2.6c.7-1.1 1-2.3 1-3.6v-4.1l-1.3.6-2 .5a63.5 63.5 0 0 1-4.2.6c-1.2.2-2.3.4-3.3.8s-1.7 1-2.3 1.6c-.6.7-.8 1.5-.8 2.6a4 4 0 0 0 1.6 3.4 7 7 0 0 0 4.3 1.2Zm37.5 5.9A13.2 13.2 0 0 1 475 79a23 23 0 0 1-2-9.8c0-3.9.7-7.1 2-9.8a13.4 13.4 0 0 1 17.5-7 8 8 0 0 1 3.2 2.4c.8 1 1.4 1.8 1.8 2.7h.3V40h8.3v46.5H498V81h-.5a9 9 0 0 1-1.9 2.7 10.1 10.1 0 0 1-8.1 3.4Zm2.3-6.7c1.7 0 3.2-.5 4.4-1.4 1.3-1 2.2-2.3 2.8-4 .7-1.7 1-3.7 1-6 0-2.2-.3-4.2-1-5.8-.6-1.7-1.5-3-2.8-3.9a7.2 7.2 0 0 0-4.4-1.4c-1.9 0-3.4.5-4.6 1.4a8.7 8.7 0 0 0-2.8 4 17.2 17.2 0 0 0 0 11.6 9 9 0 0 0 2.8 4 7 7 0 0 0 4.6 1.5Zm58.6-28.8V58h-20.6v-6.4h20.6Zm-15.5 35V48.2c0-2.3.5-4.3 1.5-5.8 1-1.6 2.3-2.8 4-3.5a12 12 0 0 1 5.4-1.2 19 19 0 0 1 6.3 1l-1.7 6.3a14.3 14.3 0 0 0-3-.5c-1.6 0-2.7.4-3.3 1.1a5 5 0 0 0-1 3.2v37.6H533Zm35.8.6a15.3 15.3 0 0 1-14.7-8.5c-1.3-2.7-2-5.9-2-9.5 0-3.6.7-6.8 2-9.5a15.6 15.6 0 0 1 14.7-8.5c3.5 0 6.4.7 9 2.2a15 15 0 0 1 5.7 6.3c1.4 2.7 2 5.9 2 9.5 0 3.6-.6 6.8-2 9.5a15.1 15.1 0 0 1-5.8 6.3 16.9 16.9 0 0 1-8.9 2.2Zm0-6.6a7 7 0 0 0 4.7-1.5c1.3-1 2.2-2.4 2.8-4.1a17 17 0 0 0 1-5.8c0-2.2-.4-4-1-5.8a9.2 9.2 0 0 0-2.8-4.2 7 7 0 0 0-4.6-1.5c-1.9 0-3.5.5-4.7 1.5a9.3 9.3 0 0 0-2.8 4.2 17.4 17.4 0 0 0 0 11.6 9.3 9.3 0 0 0 2.8 4 6.7 6.7 0 0 0 4.7 1.6Zm23.8 5.9V51.6h8v5.8h.3a8.7 8.7 0 0 1 8.6-6.3 19 19 0 0 1 3 .2V59l-1.7-.3-2.2-.2c-1.5 0-2.8.4-4 1a7.2 7.2 0 0 0-3.8 6.6v20.5h-8.2Zm-384.5 95v-69.8h12.6V171h30.7v10.6H208Zm53.8 0v-52.3H274v52.3h-12.3Zm6.2-59.8c-2 0-3.7-.6-5-2a6.3 6.3 0 0 1-2.2-4.7c0-1.8.7-3.4 2.1-4.7 1.4-1.3 3.1-2 5-2 2 0 3.7.7 5.1 2a6.2 6.2 0 0 1 2.1 4.7c0 1.9-.7 3.5-2 4.8a7.6 7.6 0 0 1-5.1 2Zm31.1 29.1v30.7h-12.3v-52.3h11.8v8.9h.6a15 15 0 0 1 5.8-7c2.6-1.8 5.9-2.6 9.8-2.6 3.6 0 6.8.8 9.5 2.3a15 15 0 0 1 6.2 6.7 23 23 0 0 1 2.2 10.7v33.3h-12.3v-31.4c0-3.5-1-6.2-2.7-8.2-1.8-2-4.3-3-7.5-3-2.1 0-4 .5-5.8 1.4a10 10 0 0 0-3.9 4.1c-.9 1.8-1.4 4-1.4 6.4Zm79.6 8.7v-30.3H391v52.3h-12v-9.3h-.5c-1.2 3-3.1 5.3-5.8 7.2a17 17 0 0 1-10 2.8 15.9 15.9 0 0 1-15.2-9c-1.5-3-2.2-6.5-2.2-10.7v-33.3h12.3v31.4c0 3.3 1 6 2.8 7.9 1.8 2 4.2 3 7.1 3a11.3 11.3 0 0 0 9.5-5.4c1.1-1.7 1.7-4 1.7-6.6Zm35.1-30.3 10.6 19.3 10.7-19.3h13l-15.7 26.1 16 26.2h-13l-11-18.8-11 18.8h-13.1l16-26.2-15.6-26.1h13Z"/><defs><filter id="a" width="651" height="225" x="0" y="-4" color-interpolation-filters="sRGB" filterUnits="userSpaceOnUse"><feFlood flood-opacity="0" result="BackgroundImageFix"/><feBlend in="SourceGraphic" in2="BackgroundImageFix" result="shape"/><feColorMatrix in="SourceAlpha" result="hardAlpha" values="0 0 0 0 0 0 0 0 0 0 0 0 0 0 0 0 0 0 127 0"/><feOffset dy="1"/><feGaussianBlur stdDeviation="2"/><feComposite in2="hardAlpha" k2="-1" k3="1" operator="arithmetic"/><feColorMatrix values="0 0 0 0 1 0 0 0 0 1 0 0 0 0 1 0 0 0 0.25 0"/><feBlend in2="shape" result="effect1_innerShadow_12_1078"/><feColorMatrix in="SourceAlpha" result="hardAlpha" values="0 0 0 0 0 0 0 0 0 0 0 0 0 0 0 0 0 0 127 0"/><feOffset dy="-4"/><feGaussianBlur stdDeviation="2"/><feComposite in2="hardAlpha" k2="-1" k3="1" operator="arithmetic"/><feColorMatrix values="0 0 0 0 0 0 0 0 0 0 0 0 0 0 0 0 0 0 1 0"/><feBlend in2="effect1_innerShadow_12_1078" result="effect2_innerShadow_12_1078"/></filter><filter id="e" width="19.9" height="18.9" x="82" y="97" color-interpolation-filters="sRGB" filterUnits="userSpaceOnUse"><feFlood flood-opacity="0" result="BackgroundImageFix"/><feBlend in="SourceGraphic" in2="BackgroundImageFix" result="shape"/><feGaussianBlur result="effect1_foregroundBlur_12_1078" stdDeviation=".6"/></filter><filter id="h" width="30.2" height="22.1" x="107.3" y="95" color-interpolation-filters="sRGB" filterUnits="userSpaceOnUse"><feFlood flood-opacity="0" result="BackgroundImageFix"/><feBlend in="SourceGraphic" in2="BackgroundImageFix" result="shape"/><feGaussianBlur result="effect1_foregroundBlur_12_1078" stdDeviation="1"/></filter><filter id="k" width="13.4" height="14.1" x="97.5" y="97.7" color-interpolation-filters="sRGB" filterUnits="userSpaceOnUse"><feFlood flood-opacity="0" result="BackgroundImageFix"/><feBlend in="SourceGraphic" in2="BackgroundImageFix" result="shape"/><feGaussianBlur result="effect1_foregroundBlur_12_1078" stdDeviation=".7"/></filter><filter id="n" width="7.3" height="34.5" x="96.9" y="113.1" color-interpolation-filters="sRGB" filterUnits="userSpaceOnUse"><feFlood flood-opacity="0" result="BackgroundImageFix"/><feBlend in="SourceGraphic" in2="BackgroundImageFix" result="shape"/><feGaussianBlur result="effect1_foregroundBlur_12_1078" stdDeviation="1.3"/></filter><filter id="p" width="12.1" height="12.2" x="136.3" y="108.8" color-interpolation-filters="sRGB" filterUnits="userSpaceOnUse"><feFlood flood-opacity="0" result="BackgroundImageFix"/><feBlend in="SourceGraphic" in2="BackgroundImageFix" result="shape"/><feGaussianBlur result="effect1_foregroundBlur_12_1078" stdDeviation="1.8"/></filter><filter id="r" width="14.8" height="14.4" x="114.5" y="40.8" color-interpolation-filters="sRGB" filterUnits="userSpaceOnUse"><feFlood flood-opacity="0" result="BackgroundImageFix"/><feBlend in="SourceGraphic" in2="BackgroundImageFix" result="shape"/><feGaussianBlur result="effect1_foregroundBlur_12_1078" stdDeviation="1.7"/></filter><filter id="t" width="9.1" height="9.8" x="126.8" y="79.6" color-interpolation-filters="sRGB" filterUnits="userSpaceOnUse"><feFlood flood-opacity="0" result="BackgroundImageFix"/><feBlend in="SourceGraphic" in2="BackgroundImageFix" result="shape"/><feGaussianBlur result="effect1_foregroundBlur_12_1078" stdDeviation=".8"/></filter><filter id="v" width="17.1" height="35.1" x="71.1" y="106.4" color-interpolation-filters="sRGB" filterUnits="userSpaceOnUse"><feFlood flood-opacity="0" result="BackgroundImageFix"/><feBlend in="SourceGraphic" in2="BackgroundImageFix" result="shape"/><feGaussianBlur result="effect1_foregroundBlur_12_1078" stdDeviation="1"/></filter><filter id="x" width="18.5" height="44.3" x="133.2" y="103" color-interpolation-filters="sRGB" filterUnits="userSpaceOnUse"><feFlood flood-opacity="0" result="BackgroundImageFix"/><feBlend in="SourceGraphic" in2="BackgroundImageFix" result="shape"/><feGaussianBlur result="effect1_foregroundBlur_12_1078" stdDeviation="1.2"/></filter><filter id="B" width="56.2" height="56" x="45.7" y="131.6" color-interpolation-filters="sRGB" filterUnits="userSpaceOnUse"><feFlood flood-opacity="0" result="BackgroundImageFix"/><feBlend in="SourceGraphic" in2="BackgroundImageFix" result="shape"/><feGaussianBlur result="effect1_foregroundBlur_12_1078" stdDeviation="3.4"/></filter><filter id="D" width="46.2" height="48.6" x="49.8" y="132.3" color-interpolation-filters="sRGB" filterUnits="userSpaceOnUse"><feFlood flood-opacity="0" result="BackgroundImageFix"/><feBlend in="SourceGraphic" in2="BackgroundImageFix" result="shape"/><feGaussianBlur result="effect1_foregroundBlur_12_1078" stdDeviation="2.1"/></filter><filter id="F" width="14" height="24.5" x="79" y="144" color-interpolation-filters="sRGB" filterUnits="userSpaceOnUse"><feFlood flood-opacity="0" result="BackgroundImageFix"/><feBlend in="SourceGraphic" in2="BackgroundImageFix" result="shape"/><feGaussianBlur result="effect1_foregroundBlur_12_1078" stdDeviation=".3"/></filter><filter id="I" width="42.5" height="45.8" x="124.3" y="140.8" color-interpolation-filters="sRGB" filterUnits="userSpaceOnUse"><feFlood flood-opacity="0" result="BackgroundImageFix"/><feBlend in="SourceGraphic" in2="BackgroundImageFix" result="shape"/><feGaussianBlur result="effect1_foregroundBlur_12_1078" stdDeviation="1.9"/></filter><filter id="N" width="54.9" height="55.5" x="124.5" y="132" color-interpolation-filters="sRGB" filterUnits="userSpaceOnUse"><feFlood flood-opacity="0" result="BackgroundImageFix"/><feBlend in="SourceGraphic" in2="BackgroundImageFix" result="shape"/><feGaussianBlur result="effect1_foregroundBlur_12_1078" stdDeviation="4.1"/></filter><filter id="P" width="49.2" height="49.1" x="128" y="131.1" color-interpolation-filters="sRGB" filterUnits="userSpaceOnUse"><feFlood flood-opacity="0" result="BackgroundImageFix"/><feBlend in="SourceGraphic" in2="BackgroundImageFix" result="shape"/><feGaussianBlur result="effect1_foregroundBlur_12_1078" stdDeviation="3.1"/></filter><filter id="R" width="28.4" height="5.9" x="133" y="138.9" color-interpolation-filters="sRGB" filterUnits="userSpaceOnUse"><feFlood flood-opacity="0" result="BackgroundImageFix"/><feBlend in="SourceGraphic" in2="BackgroundImageFix" result="shape"/><feGaussianBlur result="effect1_foregroundBlur_12_1078" stdDeviation=".4"/></filter><filter id="U" width="26.6" height="24.2" x="134.1" y="137.1" color-interpolation-filters="sRGB" filterUnits="userSpaceOnUse"><feFlood flood-opacity="0" result="BackgroundImageFix"/><feBlend in="SourceGraphic" in2="BackgroundImageFix" result="shape"/><feGaussianBlur result="effect1_foregroundBlur_12_1078" stdDeviation="2.5"/></filter><filter id="X" width="21.1" height="14.8" x="136.9" y="138.9" color-interpolation-filters="sRGB" filterUnits="userSpaceOnUse"><feFlood flood-opacity="0" result="BackgroundImageFix"/><feBlend in="SourceGraphic" in2="BackgroundImageFix" result="shape"/><feGaussianBlur result="effect1_foregroundBlur_12_1078" stdDeviation="1.1"/></filter><filter id="ab" width="20.6" height="11.6" x="138.5" y="133.1" color-interpolation-filters="sRGB" filterUnits="userSpaceOnUse"><feFlood flood-opacity="0" result="BackgroundImageFix"/><feBlend in="SourceGraphic" in2="BackgroundImageFix" result="shape"/><feGaussianBlur result="effect1_foregroundBlur_12_1078" stdDeviation=".9"/></filter><filter id="ae" width="20.6" height="11.6" x="138.5" y="133.1" color-interpolation-filters="sRGB" filterUnits="userSpaceOnUse"><feFlood flood-opacity="0" result="BackgroundImageFix"/><feBlend in="SourceGraphic" in2="BackgroundImageFix" result="shape"/><feGaussianBlur result="effect1_foregroundBlur_12_1078" stdDeviation=".9"/></filter><filter id="ai" width="4.1" height="5.7" x="97.7" y="64.6" color-interpolation-filters="sRGB" filterUnits="userSpaceOnUse"><feFlood flood-opacity="0" result="BackgroundImageFix"/><feBlend in="SourceGraphic" in2="BackgroundImageFix" result="shape"/><feGaussianBlur result="effect1_foregroundBlur_12_1078" stdDeviation=".4"/></filter><filter id="an" width="7.1" height="6.5" x="97.7" y="56.4" color-interpolation-filters="sRGB" filterUnits="userSpaceOnUse"><feFlood flood-opacity="0" result="BackgroundImageFix"/><feBlend in="SourceGraphic" in2="BackgroundImageFix" result="shape"/><feGaussianBlur result="effect1_foregroundBlur_12_1078" stdDeviation=".1"/></filter><filter id="aq" width="5.4" height="5.4" x="115.7" y="63.9" color-interpolation-filters="sRGB" filterUnits="userSpaceOnUse"><feFlood flood-opacity="0" result="BackgroundImageFix"/><feBlend in="SourceGraphic" in2="BackgroundImageFix" result="shape"/><feGaussianBlur result="effect1_foregroundBlur_12_1078" stdDeviation=".5"/></filter><filter id="av" width="7.9" height="7.3" x="117.6" y="55.5" color-interpolation-filters="sRGB" filterUnits="userSpaceOnUse"><feFlood flood-opacity="0" result="BackgroundImageFix"/><feBlend in="SourceGraphic" in2="BackgroundImageFix" result="shape"/><feGaussianBlur result="effect1_foregroundBlur_12_1078" stdDeviation=".1"/></filter><filter id="ax" width="38.3" height="25.7" x="90.8" y="74.5" color-interpolation-filters="sRGB" filterUnits="userSpaceOnUse"><feFlood flood-opacity="0" result="BackgroundImageFix"/><feBlend in="SourceGraphic" in2="BackgroundImageFix" result="shape"/><feGaussianBlur result="effect1_foregroundBlur_12_1078" stdDeviation="1.8"/></filter><filter id="az" width="33" height="16.7" x="92.5" y="75.1" color-interpolation-filters="sRGB" filterUnits="userSpaceOnUse"><feFlood flood-opacity="0" result="BackgroundImageFix"/><feBlend in="SourceGraphic" in2="BackgroundImageFix" result="shape"/><feGaussianBlur result="effect1_foregroundBlur_12_1078" stdDeviation=".8"/></filter><filter id="aE" width="9.9" height="8.1" x="99.7" y="80" color-interpolation-filters="sRGB" filterUnits="userSpaceOnUse"><feFlood flood-opacity="0" result="BackgroundImageFix"/><feBlend in="SourceGraphic" in2="BackgroundImageFix" result="shape"/><feGaussianBlur result="effect1_foregroundBlur_12_1078" stdDeviation=".8"/></filter><filter id="aG" width="28.6" height="14" x="93.9" y="72.5" color-interpolation-filters="sRGB" filterUnits="userSpaceOnUse"><feFlood flood-opacity="0" result="BackgroundImageFix"/><feBlend in="SourceGraphic" in2="BackgroundImageFix" result="shape"/><feGaussianBlur result="effect1_foregroundBlur_12_1078" stdDeviation=".7"/></filter><filter id="aK" width="9" height="10.5" x="105.1" y="72.9" color-interpolation-filters="sRGB" filterUnits="userSpaceOnUse"><feFlood flood-opacity="0" result="BackgroundImageFix"/><feBlend in="SourceGraphic" in2="BackgroundImageFix" result="shape"/><feGaussianBlur result="effect1_foregroundBlur_12_1078" stdDeviation=".7"/></filter><filter id="aM" width="1.5" height="1.7" x="101.8" y="71.2" color-interpolation-filters="sRGB" filterUnits="userSpaceOnUse"><feFlood flood-opacity="0" result="BackgroundImageFix"/><feBlend in="SourceGraphic" in2="BackgroundImageFix" result="shape"/><feGaussianBlur result="effect1_foregroundBlur_12_1078" stdDeviation=".1"/></filter><filter id="aO" width="3.1" height="1.8" x="108.4" y="71" color-interpolation-filters="sRGB" filterUnits="userSpaceOnUse"><feFlood flood-opacity="0" result="BackgroundImageFix"/><feBlend in="SourceGraphic" in2="BackgroundImageFix" result="shape"/><feGaussianBlur result="effect1_foregroundBlur_12_1078" stdDeviation=".1"/></filter><filter id="aQ" width="3.6" height="4.3" x="120.4" y="75" color-interpolation-filters="sRGB" filterUnits="userSpaceOnUse"><feFlood flood-opacity="0" result="BackgroundImageFix"/><feBlend in="SourceGraphic" in2="BackgroundImageFix" result="shape"/><feGaussianBlur result="effect1_foregroundBlur_12_1078" stdDeviation=".2"/></filter><linearGradient id="b" x1="325.5" x2="325.5" y1="0" y2="220" gradientUnits="userSpaceOnUse"><stop stop-color="#171717"/><stop offset="1" stop-color="#0C0C0C"/></linearGradient><linearGradient id="z" x1="63.7" x2="87" y1="147.3" y2="186.3" gradientUnits="userSpaceOnUse"><stop stop-color="#B98309"/><stop offset="1" stop-color="#382605"/></linearGradient><linearGradient id="H" x1="87.1" x2="94.4" y1="157.4" y2="171.2" gradientUnits="userSpaceOnUse"><stop stop-color="#EBC40C"/><stop offset="1" stop-color="#EBC40C" stop-opacity="0"/></linearGradient><linearGradient id="K" x1="133.6" x2="135.5" y1="158.1" y2="171.5" gradientUnits="userSpaceOnUse"><stop/><stop offset="1" stop-opacity="0"/></linearGradient><linearGradient id="L" x1="136.2" x2="159.7" y1="181.3" y2="143.3" gradientUnits="userSpaceOnUse"><stop stop-color="#3E2A06"/><stop offset="1" stop-color="#AD780A"/></linearGradient><linearGradient id="T" x1="142.6" x2="141.9" y1="140.3" y2="146.5" gradientUnits="userSpaceOnUse"><stop stop-color="#F3CD0C"/><stop offset="1" stop-color="#F3CD0C" stop-opacity="0"/></linearGradient><linearGradient id="ag" x1="144.2" x2="145.7" y1="136.3" y2="136.3" gradientUnits="userSpaceOnUse"><stop stop-color="#7C7C7C"/><stop offset="1" stop-color="#7C7C7C" stop-opacity=".3"/></linearGradient><linearGradient id="ak" x1="98.2" x2="101.1" y1="64.4" y2="69.5" gradientUnits="userSpaceOnUse"><stop stop-color="#757574" stop-opacity="0"/><stop offset=".3" stop-color="#757574"/><stop offset=".5" stop-color="#757574"/><stop offset="1" stop-color="#757574" stop-opacity="0"/></linearGradient><linearGradient id="ao" x1="97.9" x2="104" y1="56.4" y2="62.7" gradientUnits="userSpaceOnUse"><stop stop-color="#646464" stop-opacity="0"/><stop offset=".3" stop-color="#646464" stop-opacity=".6"/><stop offset=".5" stop-color="#646464"/><stop offset=".7" stop-color="#646464" stop-opacity=".3"/><stop offset="1" stop-color="#646464" stop-opacity="0"/></linearGradient><linearGradient id="as" x1="117.2" x2="120.5" y1="64.8" y2="68.6" gradientUnits="userSpaceOnUse"><stop stop-color="#949494" stop-opacity=".4"/><stop offset=".5" stop-color="#949494"/><stop offset="1" stop-color="#949494" stop-opacity=".4"/></linearGradient><linearGradient id="au" x1="114.4" x2="124.8" y1="58.5" y2="64.6" gradientUnits="userSpaceOnUse"><stop stop-color="#747474"/><stop offset=".1" stop-color="#8C8C8C"/><stop offset=".3" stop-color="#A4A4A4"/><stop offset=".5" stop-color="#D4D4D4"/><stop offset=".6" stop-color="#D4D4D4"/><stop offset="1" stop-color="#7C7C7C"/></linearGradient><linearGradient id="aw" x1="118" x2="124.9" y1="55.9" y2="62.4" gradientUnits="userSpaceOnUse"><stop stop-color="#646464" stop-opacity="0"/><stop offset=".3" stop-color="#646464" stop-opacity=".6"/><stop offset=".5" stop-color="#646464"/><stop offset=".7" stop-color="#646464" stop-opacity=".3"/><stop offset="1" stop-color="#646464" stop-opacity="0"/></linearGradient><linearGradient id="aI" x1="94.7" x2="122.3" y1="77.3" y2="77" gradientUnits="userSpaceOnUse"><stop stop-color="#AD780A"/><stop offset=".1" stop-color="#D89E08"/><stop offset=".3" stop-color="#EDB80B"/><stop offset=".4" stop-color="#EBC80D"/><stop offset=".5" stop-color="#F5D838"/><stop offset=".8" stop-color="#F6D811"/><stop offset="1" stop-color="#F5CD31"/></linearGradient><linearGradient id="aS" x1="122.2" x2="122.2" y1="76.2" y2="78.3" gradientUnits="userSpaceOnUse"><stop stop-color="#F5CE2D"/><stop offset="1" stop-color="#D79B08"/></linearGradient><radialGradient id="g" cx="0" cy="0" r="1" gradientTransform="matrix(11 0 0 10 85.2 106.6)" gradientUnits="userSpaceOnUse"><stop/><stop offset="1" stop-opacity=".3"/></radialGradient><radialGradient id="j" cx="0" cy="0" r="1" gradientTransform="matrix(14 0 0 10 121.6 112.5)" gradientUnits="userSpaceOnUse"><stop/><stop offset="1" stop-opacity=".3"/></radialGradient><radialGradient id="m" cx="0" cy="0" r="1" gradientTransform="matrix(5 0 0 6 103.8 110.2)" gradientUnits="userSpaceOnUse"><stop/><stop offset="1" stop-opacity=".3"/></radialGradient><radialGradient id="W" cx="0" cy="0" r="1" gradientTransform="matrix(11 3 -3 11 146.5 148.2)" gradientUnits="userSpaceOnUse"><stop stop-color="#110800"/><stop offset=".6" stop-color="#A65A00" stop-opacity=".8"/><stop offset="1" stop-color="#FF921E" stop-opacity="0"/></radialGradient><radialGradient id="Z" cx="0" cy="0" r="1" gradientTransform="matrix(11 -1 1 8 146.5 145.6)" gradientUnits="userSpaceOnUse"><stop stop-color="#110800"/><stop offset=".6" stop-color="#A65A00" stop-opacity=".8"/><stop offset="1" stop-color="#FF921E" stop-opacity="0"/></radialGradient><radialGradient id="ad" cx="0" cy="0" r="1" gradientTransform="matrix(3 2 -1 2 155 138)" gradientUnits="userSpaceOnUse"><stop stop-color="#7C7C7C"/><stop offset="1" stop-color="#7C7C7C" stop-opacity=".3"/></radialGradient><radialGradient id="ah" cx="0" cy="0" r="1" gradientTransform="matrix(6 0 0 9 99.5 67.1)" gradientUnits="userSpaceOnUse"><stop stop-color="#FEFEFC"/><stop offset=".8" stop-color="#FEFEFC"/><stop offset="1" stop-color="#D4D4D4"/></radialGradient><radialGradient id="am" cx="0" cy="0" r="1" gradientTransform="matrix(3 -1 1 3 98.6 62.8)" gradientUnits="userSpaceOnUse"><stop stop-color="#C8C8C8"/><stop offset="1" stop-color="#797978"/></radialGradient><radialGradient id="ap" cx="0" cy="0" r="1" gradientTransform="matrix(8 0 0 9 117.3 67.1)" gradientUnits="userSpaceOnUse"><stop stop-color="#FEFEFC"/><stop offset=".8" stop-color="#FEFEFC"/><stop offset="1" stop-color="#D4D4D4"/></radialGradient><radialGradient id="aB" cx="0" cy="0" r="1" gradientTransform="matrix(5 -4 3 5 105.8 72)" gradientUnits="userSpaceOnUse"><stop stop-color="#020204"/><stop offset=".7" stop-color="#020204"/><stop offset="1" stop-color="#5C5C5C"/></radialGradient><radialGradient id="aC" cx="0" cy="0" r="1" gradientTransform="matrix(14 -6 4 10 112.7 78)" gradientUnits="userSpaceOnUse"><stop stop-color="#D2940A"/><stop offset=".8" stop-color="#D89C08"/><stop offset=".9" stop-color="#B67E07"/><stop offset="1" stop-color="#946106"/></radialGradient><radialGradient id="aN" cx="0" cy="0" r="1" gradientTransform="translate(102.7 72)" gradientUnits="userSpaceOnUse"><stop stop-color="#3A2903"/><stop offset=".6" stop-color="#735208"/><stop offset="1" stop-color="#AC8C04"/></radialGradient><radialGradient id="aP" cx="0" cy="0" r="1" gradientTransform="matrix(2 0 0 1 109.8 71.8)" gradientUnits="userSpaceOnUse"><stop stop-color="#3A2903"/><stop offset=".6" stop-color="#735208"/><stop offset="1" stop-color="#AC8C04"/></radialGradient><clipPath id="c"><path fill="#fff" d="M50.6 38h122v145h-122z"/></clipPath></defs></svg>