<svg xmlns="http://www.w3.org/2000/svg" fill="none" viewBox="0 0 651 220"><g filter="url(#a)"><path fill="url(#b)" d="M0 44.8c0-15.7 0-23.5 3-29.5A28 28 0 0 1 15.4 3C21.3 0 29 0 44.8 0h561.4c15.7 0 23.5 0 29.5 3A28 28 0 0 1 648 15.4c3.1 6 3.1 13.8 3.1 29.5v130.4c0 15.7 0 23.5-3 29.5a28 28 0 0 1-12.3 12.2c-6 3.1-13.8 3.1-29.5 3.1H44.8c-15.7 0-23.5 0-29.5-3A28 28 0 0 1 3 204.6c-3-5.9-3-13.6-3-29.4V44.8Z"/></g><path fill="url(#c)" d="M42.5 37h68.8v69.2H42.5V37Zm76.3 0h68.7v69.2h-68.7V37Zm-76.3 76.8h68.8V183H42.5v-69.2Zm76.3 0h68.7V183h-68.7"/><path fill="#fff" d="M214 90V45.2h13c16.5 0 24.8 7.3 24.8 21.8 0 7-2.3 12.5-7 16.7a26.3 26.3 0 0 1-18.3 6.3H214Zm7.5-38.5v32.2h5.9c5.2 0 9.3-1.4 12.2-4.3 2.9-2.9 4.4-7 4.4-12.2 0-10.5-5.5-15.7-16.3-15.7h-6.2Zm51.9 39.2a16 16 0 0 1-11.9-4.4c-3-3-4.4-7-4.4-12 0-5.3 1.5-9.5 4.6-12.5 3-3 7.2-4.6 12.4-4.6 5 0 9 1.5 11.7 4.4 2.8 3 4.2 7 4.2 12.3 0 5-1.5 9.2-4.5 12.2a16 16 0 0 1-12.1 4.6Zm.3-27.7c-2.8 0-5 1-6.7 3-1.7 2-2.5 4.7-2.5 8.2 0 3.3.8 6 2.5 8a9 9 0 0 0 6.7 2.8c2.9 0 5-1 6.6-2.9 1.5-1.9 2.3-4.6 2.3-8a13 13 0 0 0-2.3-8.2 7.9 7.9 0 0 0-6.6-2.9Zm66.8-5L331 90h-7.6l-5.8-21.7c-.2-.8-.4-1.8-.4-2.8h-.2c0 .7-.2 1.6-.5 2.7L310.2 90h-7.5l-9.4-32h7.5l5.8 23c.2.7.4 1.7.4 2.8h.2l.5-2.8 6.5-23h6.8l5.8 23.1.4 2.8h.2c0-.8.2-1.7.5-2.8l5.6-23.1h7Zm33.9 32H367V72c0-6-2.1-9-6.3-9a7 7 0 0 0-5.5 2.5 9.2 9.2 0 0 0-2.2 6.2V90h-7V58h7.2v5.3h.2c2.4-4 5.8-6 10.3-6 3.5 0 6.2 1 8 3.3 1.8 2.3 2.8 5.6 2.8 9.8V90Zm16.1 0h-7.3V42.6h7.3V90Zm23.7.7a16 16 0 0 1-11.9-4.4c-3-3-4.4-7-4.4-12a17 17 0 0 1 4.6-12.5c3.1-3 7.2-4.6 12.5-4.6 5 0 8.8 1.5 11.6 4.4 2.8 3 4.2 7 4.2 12.3 0 5-1.5 9.2-4.5 12.2a16 16 0 0 1-12.1 4.6Zm.3-27.7c-2.8 0-5 1-6.7 3-1.6 2-2.5 4.7-2.5 8.2 0 3.3.9 6 2.5 8a9 9 0 0 0 6.7 2.8c2.9 0 5-1 6.6-2.9 1.5-1.9 2.3-4.6 2.3-8a13 13 0 0 0-2.3-8.2 7.9 7.9 0 0 0-6.6-2.9ZM462 90h-7v-5h-.1a10.6 10.6 0 0 1-9.7 5.7c-3.2 0-5.6-.8-7.4-2.5a9 9 0 0 1-2.7-6.8c0-6 3.5-9.6 10.4-10.6l9.5-1.3c0-4.6-2.1-6.9-6.5-6.9-3.8 0-7.2 1.4-10.3 4v-6.4c3.4-2 7.3-3 11.7-3 8.1 0 12.1 4 12.1 12V90Zm-7-15.7-6.7.9c-2 .3-3.6.8-4.7 1.5-1 .8-1.6 2-1.6 4 0 1.3.5 2.4 1.5 3.3a6 6 0 0 0 3.9 1.2c2.2 0 4-.7 5.5-2.3A8.3 8.3 0 0 0 455 77v-2.7ZM500 90h-7.2v-5.5h-.2a11.3 11.3 0 0 1-10.7 6.2c-4 0-7.1-1.4-9.5-4.2a18 18 0 0 1-3.5-11.8c0-5.3 1.3-9.5 3.9-12.7 2.6-3.2 6-4.8 10.4-4.8a10 10 0 0 1 9.4 5.2h.2V42.6h7.2V90Zm-7-14.6v-4.2c0-2.3-.8-4.2-2.3-5.8A7.4 7.4 0 0 0 485 63c-2.7 0-4.9 1-6.4 3-1.6 2-2.3 4.9-2.3 8.5 0 3.2.7 5.8 2.2 7.7a7.3 7.3 0 0 0 6 2.8c2.5 0 4.5-1 6-2.7 1.6-1.9 2.4-4.2 2.4-7Zm52.2-26.9a7 7 0 0 0-3.3-.8c-3.6 0-5.3 2-5.3 6V58h7.4v5.7h-7.4V90h-7.2V63.7h-5.5V58h5.5v-5.2c0-3.4 1-6 3.3-8 2.2-2 5-3 8.3-3 1.7 0 3.2.3 4.2.7v6Zm18.2 42.2a16 16 0 0 1-11.9-4.4c-3-3-4.4-7-4.4-12 0-5.3 1.5-9.5 4.6-12.5 3-3 7.2-4.6 12.4-4.6 5 0 9 1.5 11.7 4.4 2.8 3 4.2 7 4.2 12.3 0 5-1.5 9.2-4.5 12.2a16 16 0 0 1-12.1 4.6Zm.3-27.7c-2.8 0-5 1-6.7 3-1.7 2-2.5 4.7-2.5 8.2 0 3.3.8 6 2.5 8a9 9 0 0 0 6.7 2.8c2.9 0 5-1 6.6-2.9 1.5-1.9 2.3-4.6 2.3-8a13 13 0 0 0-2.3-8.2 7.9 7.9 0 0 0-6.6-2.9Zm42.3 1.9a6 6 0 0 0-3.8-1c-2.1 0-4 1-5.4 2.9a13 13 0 0 0-2.1 7.9V90h-7.3V58h7.3v6.6h.1c.7-2.3 1.8-4 3.2-5.3a8 8 0 0 1 5-1.9c1.3 0 2.3.2 3 .6v7Zm-305.8 44.9L281.8 177h-12.6l-12.8-47c-.6-2-.9-4.2-1-6.6h-.2c-.2 2.2-.5 4.4-1.1 6.5l-12.9 47h-12.9l-18.8-67.1h12.3L234 159c.5 2 .8 4.2 1 6.5h.1c.2-1.6.6-3.8 1.4-6.5l13.7-49.2h11.5l12.8 49.6c.4 1.6.7 3.6 1 6h.1a39 39 0 0 1 1.1-6.2l12-49.4h11.5Zm13.6 9.2a7 7 0 0 1-4.6-1.8 5.7 5.7 0 0 1-1.9-4.4c0-1.8.7-3.3 1.9-4.5a6.5 6.5 0 0 1 4.6-1.8c1.8 0 3.4.6 4.7 1.8a6 6 0 0 1 2 4.5c0 1.7-.7 3.1-2 4.3a6.6 6.6 0 0 1-4.7 1.8Zm5.4 58h-10.9v-48h10.9v48Zm57 0h-10.9v-27c0-9-3.2-13.5-9.5-13.5-3.3 0-6 1.2-8.2 3.7a13.7 13.7 0 0 0-3.2 9.4V177h-11v-48h11v8h.1a17 17 0 0 1 15.6-9.1c5.2 0 9.2 1.7 12 5 2.7 3.4 4 8.3 4 14.7V177Zm56.9 0h-10.8v-8.2h-.2a17.3 17.3 0 0 1-16.2 9.3c-5.9 0-10.6-2.1-14.2-6.4a27 27 0 0 1-5.3-17.6c0-8 2-14.3 5.9-19 3.9-4.8 9.1-7.2 15.7-7.2 6.4 0 11.1 2.6 14 7.7h.3V106H433v71Zm-10.7-22v-6.2c0-3.4-1.1-6.3-3.3-8.7a11 11 0 0 0-8.5-3.6c-4 0-7.3 1.5-9.6 4.6-2.3 3-3.5 7.2-3.5 12.6 0 4.9 1.1 8.7 3.3 11.6a11 11 0 0 0 9 4.2c3.8 0 6.8-1.4 9.1-4 2.4-2.8 3.5-6.3 3.5-10.5Zm46.2 23.1a24 24 0 0 1-17.7-6.7 24.4 24.4 0 0 1-6.6-17.9 25 25 0 0 1 6.8-18.8 25.5 25.5 0 0 1 18.7-6.8 23 23 0 0 1 17.5 6.6 25.5 25.5 0 0 1 6.3 18.3c0 7.7-2.3 13.8-6.8 18.4a24.3 24.3 0 0 1-18.2 7Zm.5-41.6c-4.2 0-7.6 1.5-10 4.5-2.5 3-3.7 7-3.7 12.3 0 5 1.2 9 3.7 11.9a13 13 0 0 0 10 4.3c4.3 0 7.6-1.4 9.9-4.3 2.3-2.8 3.5-6.9 3.5-12.1a19 19 0 0 0-3.5-12.3 11.8 11.8 0 0 0-9.9-4.3Zm100.2-7.5L555 177h-11.4l-8.7-32.5c-.3-1.3-.6-2.7-.7-4.3h-.1a23 23 0 0 1-.9 4.2l-9.5 32.6h-11.1l-14.1-48h11.2l8.7 34.6c.3 1 .5 2.4.6 4.1h.3c.1-1.3.4-2.7.8-4.2l9.7-34.5H540l8.6 34.7c.3 1.1.5 2.5.6 4.1h.4c0-1.1.3-2.5.7-4l8.5-34.8h10.4Zm5.1 46.5v-10c4 3 8.5 4.5 13.4 4.5 6.6 0 9.9-1.9 9.9-5.8 0-1-.3-2-.9-2.7a7.8 7.8 0 0 0-2.3-2c-1-.7-2-1.2-3.3-1.7l-4.4-1.6c-2-.8-3.7-1.6-5.3-2.5a17 17 0 0 1-4-3 10 10 0 0 1-2.3-3.7c-.5-1.4-.8-3-.8-5 0-2.3.6-4.3 1.7-6a14 14 0 0 1 4.4-4.5 21 21 0 0 1 6.3-2.7 33 33 0 0 1 19.2 1v9.6a20 20 0 0 0-15.5-3c-1 .2-2 .6-2.8 1.1-.7.5-1.4 1.1-1.8 1.8-.4.7-.6 1.5-.6 2.3 0 1 .2 2 .6 2.7.4.7 1 1.3 2 1.9l3 1.5c1.2.4 2.6 1 4.2 1.4 2 .9 3.9 1.7 5.5 2.6 1.7.9 3 1.9 4.2 3a11.9 11.9 0 0 1 3.7 9 12 12 0 0 1-1.7 6.4 14 14 0 0 1-4.5 4.5c-2 1.2-4 2-6.5 2.6a32.7 32.7 0 0 1-21.4-1.7Z"/><defs><linearGradient id="b" x1="325.5" x2="325.5" y1="0" y2="220" gradientUnits="userSpaceOnUse"><stop stop-color="#171717"/><stop offset="1" stop-color="#0C0C0C"/></linearGradient><linearGradient id="c" x1="115" x2="115" y1="37" y2="183" gradientUnits="userSpaceOnUse"><stop stop-color="#0078D4"/><stop offset="1" stop-color="#005DA4"/></linearGradient><filter id="a" width="651" height="225" x="0" y="-4" color-interpolation-filters="sRGB" filterUnits="userSpaceOnUse"><feFlood flood-opacity="0" result="BackgroundImageFix"/><feBlend in="SourceGraphic" in2="BackgroundImageFix" result="shape"/><feColorMatrix in="SourceAlpha" result="hardAlpha" values="0 0 0 0 0 0 0 0 0 0 0 0 0 0 0 0 0 0 127 0"/><feOffset dy="1"/><feGaussianBlur stdDeviation="2"/><feComposite in2="hardAlpha" k2="-1" k3="1" operator="arithmetic"/><feColorMatrix values="0 0 0 0 1 0 0 0 0 1 0 0 0 0 1 0 0 0 0.25 0"/><feBlend in2="shape" result="effect1_innerShadow_12_1071"/><feColorMatrix in="SourceAlpha" result="hardAlpha" values="0 0 0 0 0 0 0 0 0 0 0 0 0 0 0 0 0 0 127 0"/><feOffset dy="-4"/><feGaussianBlur stdDeviation="2"/><feComposite in2="hardAlpha" k2="-1" k3="1" operator="arithmetic"/><feColorMatrix values="0 0 0 0 0 0 0 0 0 0 0 0 0 0 0 0 0 0 1 0"/><feBlend in2="effect1_innerShadow_12_1071" result="effect2_innerShadow_12_1071"/></filter></defs></svg>