<svg xmlns="http://www.w3.org/2000/svg" fill="none" viewBox="0 0 863 225"><path fill="url(#a)" d="M0 63.8c0-18.4 0-27.7 2.7-35a44 44 0 0 1 26-26C36.2 0 45.5 0 63.9 0h735.4c18.4 0 27.7 0 35 2.7a44 44 0 0 1 26 26c2.8 7.4 2.8 16.7 2.8 35.1v97.4c0 18.4 0 27.7-2.7 35a44 44 0 0 1-26 26c-7.4 2.8-16.7 2.8-35.1 2.8H63.8c-18.4 0-27.7 0-35-2.7a44 44 0 0 1-26-26C0 188.8 0 179.5 0 161.1V63.8Z"/><path fill="url(#b)" fill-rule="evenodd" d="M160 50.5h-15.5v23.3a46.1 46.1 0 0 1-20.9 38.7 43.2 43.2 0 0 1 15.4 16.6 46.2 46.2 0 0 1 5.5 22.2v23.2H160V190H36v-15.5h15.5v-23.3a46.1 46.1 0 0 1 20.9-38.7A43.2 43.2 0 0 1 57 95.9a46.2 46.2 0 0 1-5.5-22.2V50.5H36V35h124v15.5Zm-68 69.2a3 3 0 0 0-3.2 3 21.9 21.9 0 0 1-7.4 16.6c-3.8 4.1-8 8.8-8 17.3 0 15.4 9.2 24.7 24.6 24.7 15.4 0 24.6-9 24.6-24.7 0-6.1-3-16.7-7-20.6a3 3 0 0 0-3-.8 3 3 0 0 0-2.2 2.2c-.3 1.3-.8 2.4-1.4 3.5a33.6 33.6 0 0 0-15.4-20.7 3 3 0 0 0-1.6-.5Zm-25-46c0 8.6 3 15.9 9.1 22 6 6 13.4 9 21.9 9 8.5 0 15.8-3 21.9-9 6-6.1 9.1-13.4 9.1-22V50.5H67v23.3Z" clip-rule="evenodd"/><path fill="url(#c)" d="M240 159h-33V66h33.4c9.3 0 17.4 1.8 24.1 5.5a37 37 0 0 1 15.6 16 52 52 0 0 1 5.5 24.9 53 53 0 0 1-5.5 25 37 37 0 0 1-15.6 16A50 50 0 0 1 240 159Zm-13.2-16.9h12.5c5.8 0 10.7-1 14.7-3 4-2.1 7-5.4 9-9.7 2-4.4 3-10.1 3-17 0-7-1-12.5-3-16.9-2-4.4-5-7.6-9-9.6-4-2.1-8.9-3.1-14.7-3.1h-12.5V142Z"/><path fill="url(#d)" d="M331.4 160.4c-7 0-13.2-1.5-18.3-4.5a31 31 0 0 1-11.9-12.7 40.7 40.7 0 0 1-4.2-18.8 41 41 0 0 1 4.2-19c2.8-5.4 6.8-9.6 11.9-12.6 5.1-3 11.2-4.5 18.3-4.5a36 36 0 0 1 18.3 4.5c5.1 3 9 7.2 11.9 12.7a40.6 40.6 0 0 1 4.2 18.9c0 7.1-1.4 13.4-4.2 18.8a30.7 30.7 0 0 1-12 12.7c-5 3-11.1 4.5-18.2 4.5Zm0-15c3.3 0 6-1 8.1-2.8a17 17 0 0 0 4.9-7.5c1.1-3.2 1.7-6.8 1.7-10.9 0-4-.6-7.7-1.7-10.8a17 17 0 0 0-4.9-7.6 12 12 0 0 0-8-2.8c-3.3 0-6 1-8.2 2.8a17 17 0 0 0-5 7.6 35.6 35.6 0 0 0 .1 21.7 17 17 0 0 0 5 7.5c2.1 1.9 4.8 2.8 8 2.8Z"/><path fill="url(#e)" d="m390.4 159-19-69.8H391l10.8 46.9h.6l11.3-47h19.2l11.5 46.7h.6l10.6-46.6h19.5l-19 69.8h-20.4l-12-44h-.9l-12 44h-20.4Z"/><path fill="url(#f)" d="M504.8 118.6V159h-19.3V89.2h18.4v12.3h.9c1.5-4 4-7.3 7.7-9.6 3.7-2.4 8-3.6 13.3-3.6 4.8 0 9 1 12.6 3.2a21 21 0 0 1 8.4 9c2 4 3 8.6 3 14V159h-19.3v-41c0-4.3-1-7.6-3.3-10a11.8 11.8 0 0 0-9.1-3.6c-2.6 0-5 .5-7 1.6-2 1.2-3.5 2.8-4.6 5a17 17 0 0 0-1.7 7.6Z"/><path fill="url(#g)" d="M584.5 66v93H565V66h19.4Z"/><path fill="url(#h)" d="M631.5 160.4a31.7 31.7 0 0 1-30.2-17.2 40.7 40.7 0 0 1-4.1-18.8c0-7.2 1.4-13.6 4.1-19 2.8-5.4 6.8-9.6 12-12.6 5-3 11.2-4.5 18.2-4.5s13.2 1.5 18.3 4.5c5.1 3 9.1 7.2 12 12.7a40.6 40.6 0 0 1 4 18.9c0 7.1-1.3 13.4-4 18.8a30.7 30.7 0 0 1-12 12.7c-5.1 3-11.2 4.5-18.3 4.5Zm.1-15c3.2 0 6-1 8-2.8a17 17 0 0 0 5-7.5 36.2 36.2 0 0 0-.1-21.7 17 17 0 0 0-4.8-7.6 12 12 0 0 0-8-2.8c-3.3 0-6 1-8.3 2.8a17 17 0 0 0-5 7.6 35.6 35.6 0 0 0 .1 21.7 17 17 0 0 0 5 7.5c2.1 1.9 4.9 2.8 8.1 2.8Z"/><path fill="url(#i)" d="M698.4 160.3c-4.5 0-8.4-.8-12-2.3a19.2 19.2 0 0 1-8.2-7c-2-3-3-6.9-3-11.5 0-3.9.7-7.1 2.1-9.8 1.5-2.6 3.4-4.7 5.9-6.3 2.4-1.6 5.2-2.9 8.3-3.7 3.2-.8 6.5-1.4 10-1.7l9.8-1.2a14 14 0 0 0 5.4-1.7 3.8 3.8 0 0 0 1.6-3.4v-.2c0-3-.9-5.2-2.7-6.7a11.2 11.2 0 0 0-7.6-2.4c-3.5 0-6.3.8-8.3 2.3a10.3 10.3 0 0 0-4.1 5.8l-18-1.5a24.3 24.3 0 0 1 15.7-18.2 44.7 44.7 0 0 1 25.9-1.2c3.6 1 6.7 2.4 9.5 4.3a20.6 20.6 0 0 1 9 18V159h-18.4v-9.7h-.5a19.7 19.7 0 0 1-11.3 9.7 28 28 0 0 1-9.1 1.3Zm5.5-13.3c2.9 0 5.4-.6 7.6-1.7 2.2-1.2 3.9-2.7 5.1-4.7a12 12 0 0 0 1.9-6.6v-7.4c-.6.4-1.5.8-2.5 1.1a45.7 45.7 0 0 1-7.4 1.6l-3.6.5a24 24 0 0 0-6 1.6c-1.6.7-3 1.7-3.9 3a7.2 7.2 0 0 0-1.4 4.5 7 7 0 0 0 2.9 6c2 1.4 4.4 2 7.3 2Z"/><path fill="url(#j)" d="M778.5 160.1c-5.3 0-10.2-1.3-14.5-4a28.4 28.4 0 0 1-10.1-12.2c-2.5-5.4-3.8-12-3.8-19.7 0-8 1.3-14.7 3.9-20a26.3 26.3 0 0 1 34.2-14 20 20 0 0 1 6.3 5c1.7 2 3 3.8 3.8 5.7h.6V66h19.3v93H799v-11.2h-.8a25 25 0 0 1-3.9 5.8 19.2 19.2 0 0 1-6.4 4.7 22 22 0 0 1-9.5 1.8Zm6-15.4c3.2 0 5.8-.8 8-2.5s3.8-4.2 5-7.2c1.2-3.1 1.8-6.8 1.8-11 0-4-.6-7.7-1.8-10.7a15 15 0 0 0-5-7.1 12.7 12.7 0 0 0-8-2.5c-3 0-5.8.8-8 2.6a15.8 15.8 0 0 0-5 7.2c-1 3-1.6 6.6-1.6 10.6s.6 7.6 1.7 10.8c1.1 3 2.8 5.5 5 7.2 2.1 1.8 4.8 2.6 8 2.6Z"/><defs><linearGradient id="a" x1="431.5" x2="431.5" y1="0" y2="225" gradientUnits="userSpaceOnUse"><stop stop-color="#171717"/><stop offset="1" stop-color="#0C0C0C"/></linearGradient><linearGradient id="b" x1="431.5" x2="431.5" y1="0" y2="225" gradientUnits="userSpaceOnUse"><stop stop-color="#fff"/><stop offset="1" stop-color="#D0D0D0"/></linearGradient><linearGradient id="c" x1="513" x2="513" y1="35" y2="190" gradientUnits="userSpaceOnUse"><stop stop-color="#fff"/><stop offset="1" stop-color="#D0D0D0"/></linearGradient><linearGradient id="d" x1="513" x2="513" y1="35" y2="190" gradientUnits="userSpaceOnUse"><stop stop-color="#fff"/><stop offset="1" stop-color="#D0D0D0"/></linearGradient><linearGradient id="e" x1="513" x2="513" y1="35" y2="190" gradientUnits="userSpaceOnUse"><stop stop-color="#fff"/><stop offset="1" stop-color="#D0D0D0"/></linearGradient><linearGradient id="f" x1="513" x2="513" y1="35" y2="190" gradientUnits="userSpaceOnUse"><stop stop-color="#fff"/><stop offset="1" stop-color="#D0D0D0"/></linearGradient><linearGradient id="g" x1="513" x2="513" y1="35" y2="190" gradientUnits="userSpaceOnUse"><stop stop-color="#fff"/><stop offset="1" stop-color="#D0D0D0"/></linearGradient><linearGradient id="h" x1="513" x2="513" y1="35" y2="190" gradientUnits="userSpaceOnUse"><stop stop-color="#fff"/><stop offset="1" stop-color="#D0D0D0"/></linearGradient><linearGradient id="i" x1="513" x2="513" y1="35" y2="190" gradientUnits="userSpaceOnUse"><stop stop-color="#fff"/><stop offset="1" stop-color="#D0D0D0"/></linearGradient><linearGradient id="j" x1="513" x2="513" y1="35" y2="190" gradientUnits="userSpaceOnUse"><stop stop-color="#fff"/><stop offset="1" stop-color="#D0D0D0"/></linearGradient></defs></svg>