<svg xmlns="http://www.w3.org/2000/svg" fill="none" viewBox="0 0 156 195"><path fill="url(#a)" fill-rule="evenodd" d="M156 19.5h-19.5v29.3c0 9.9-2.3 19.2-7 27.9a54.3 54.3 0 0 1-19.3 20.8 54.3 54.3 0 0 1 19.4 20.8 59 59 0 0 1 6.9 28v29.2H156V195H0v-19.5h19.5v-29.3a57.8 57.8 0 0 1 26.3-48.7 54.3 54.3 0 0 1-19.4-20.8 59 59 0 0 1-6.9-28V19.6H0V0h156v19.5Zm-85.5 87a3.9 3.9 0 0 0-4.1 3.9 27.5 27.5 0 0 1-9.3 20.8c-4.8 5.2-10.1 11-10.1 21.8 0 19.4 11.6 31 31 31s31-11.3 31-31a46 46 0 0 0-8.9-26 3.9 3.9 0 0 0-3.8-1 3.9 3.9 0 0 0-2.8 2.9c-.3 1.5-1 3-1.7 4.3a42.2 42.2 0 0 0-19.4-26c-.6-.4-1.2-.7-2-.7ZM39 48.7c0 10.8 3.8 20 11.5 27.6A37.6 37.6 0 0 0 78 87.8c10.7 0 20-3.9 27.5-11.5A37.6 37.6 0 0 0 117 48.8V19.4H39v29.3Z" clip-rule="evenodd"/><defs><linearGradient id="a" x1="78" x2="78" y1="0" y2="195" gradientUnits="userSpaceOnUse"><stop stop-color="#171717"/><stop offset="1" stop-color="#0C0C0C"/></linearGradient></defs></svg>